<svg version="1.1" viewBox="0.0 0.0 960.0 540.0" fill="none" stroke="none" stroke-linecap="square" stroke-miterlimit="10" xmlns:xlink="http://www.w3.org/1999/xlink" xmlns="http://www.w3.org/2000/svg"><clipPath id="g113c03138a7_0_0.0"><path d="m0 0l960.0 0l0 540.0l-960.0 0l0 -540.0z" clip-rule="nonzero"/></clipPath><g clip-path="url(#g113c03138a7_0_0.0)"><path fill="#ffffff" d="m0 0l960.0 0l0 540.0l-960.0 0z" fill-rule="evenodd"/><path fill="#ff00ff" fill-opacity="0.382" d="m5.2594285 62.627396l0 0c0 -32.193626 26.098091 -58.291714 58.291714 -58.291714l708.6764 0c15.459961 0 30.286682 6.141431 41.218506 17.073248c10.931824 10.931818 17.073242 25.758543 17.073242 41.218468l0 395.51105c0 32.193634 -26.098083 58.291718 -58.291748 58.291718l-708.6764 0c-32.193626 0 -58.291714 -26.098083 -58.291714 -58.291718z" fill-rule="evenodd"/><path stroke="#000000" stroke-width="2.0" stroke-linejoin="round" stroke-linecap="butt" d="m5.2594285 62.627396l0 0c0 -32.193626 26.098091 -58.291714 58.291714 -58.291714l708.6764 0c15.459961 0 30.286682 6.141431 41.218506 17.073248c10.931824 10.931818 17.073242 25.758543 17.073242 41.218468l0 395.51105c0 32.193634 -26.098083 58.291718 -58.291748 58.291718l-708.6764 0c-32.193626 0 -58.291714 -26.098083 -58.291714 -58.291718z" fill-rule="evenodd"/><path fill="#0000ff" fill-opacity="0.2865" d="m129.4766 81.78488l0 0c0 -32.19363 26.098083 -58.291718 58.291702 -58.291718l708.6764 0c15.459961 0 30.286682 6.141432 41.218506 17.073248c10.931763 10.931816 17.073242 25.758541 17.073242 41.21847l0 395.51105c0 32.193634 -26.098083 58.291718 -58.291748 58.291718l-708.6764 0c-32.19362 0 -58.291702 -26.098083 -58.291702 -58.291718z" fill-rule="evenodd"/><path stroke="#000000" stroke-width="2.0" stroke-linejoin="round" stroke-linecap="butt" d="m129.4766 81.78488l0 0c0 -32.19363 26.098083 -58.291718 58.291702 -58.291718l708.6764 0c15.459961 0 30.286682 6.141432 41.218506 17.073248c10.931763 10.931816 17.073242 25.758541 17.073242 41.21847l0 395.51105c0 32.193634 -26.098083 58.291718 -58.291748 58.291718l-708.6764 0c-32.19362 0 -58.291702 -26.098083 -58.291702 -58.291718z" fill-rule="evenodd"/><path fill="#000000" fill-opacity="0.0" d="m35.839893 477.1181l0 -441.5748l58.17323 0l0 441.5748z" fill-rule="evenodd"/><path fill="#000000" d="m68.20052 400.73697l-0.25 -2.859375q1.71875 -0.203125 2.828125 -0.9375q1.09375 -0.75 1.78125 -2.3125q0.671875 -1.5625 0.671875 -3.515625q0 -1.734375 -0.515625 -3.0625q-0.515625 -1.328125 -1.40625 -1.96875q-0.90625 -0.65625 -1.96875 -0.65625q-1.078125 0 -1.875 0.625q-0.8125 0.625 -1.359375 2.0625q-0.359375 0.921875 -1.109375 4.078125q-0.765625 3.15625 -1.4375038 4.421875q-0.859375 1.640625 -2.125 2.453125q-1.28125 0.796875 -2.859375 0.796875q-1.734375 0 -3.234375 -0.984375q-1.515625 -0.984375 -2.296875 -2.875q-0.78125 -1.890625 -0.78125 -4.203125q0 -2.546875 0.828125 -4.484375q0.8125 -1.953125 2.40625 -3.0q1.59375 -1.046875 3.609375 -1.125l0.21875 2.90625q-2.171875 0.234375 -3.28125 1.59375q-1.109375 1.34375 -1.109375 3.984375q0 2.75 1.015625 4.015625q1.0 1.25 2.421875 1.25q1.234375 0 2.03125 -0.890625q0.796875 -0.875 1.640625 -4.5625q0.828125 -3.703125 1.453125 -5.078125q0.9218788 -2.0 2.3437538 -2.953125q1.40625 -0.953125 3.25 -0.953125q1.828125 0 3.453125 1.046875q1.609375 1.046875 2.515625 3.015625q0.890625 1.953125 0.890625 4.40625q0 3.109375 -0.90625 5.21875q-0.90625 2.09375 -2.71875 3.296875q-1.828125 1.1875 -4.125 1.25zm1.28125 -32.84375l0.359375 -2.765625q2.859375 0.453125 4.484375 2.328125q1.609375 1.859375 1.609375 4.578125q0 3.40625 -2.21875 5.484375q-2.234375 2.0625 -6.390625 2.0625q-2.6875 0 -4.703129 -0.890625q-2.015625 -0.890625 -3.015625 -2.703125q-1.015625 -1.828125 -1.015625 -3.96875q0 -2.703125 1.375 -4.421875q1.359375 -1.71875 3.875 -2.203125l0.4218788 2.734375q-1.6718788 0.390625 -2.5156288 1.390625q-0.84375 0.984375 -0.84375 2.390625q0 2.125 1.53125 3.453125q1.515625 1.328125 4.812504 1.328125q3.34375 0 4.859375 -1.28125q1.515625 -1.28125 1.515625 -3.34375q0 -1.65625 -1.015625 -2.765625q-1.015625 -1.109375 -3.125 -1.40625zm-13.593754 -5.1875l-3.234375 0l0 -2.8125l3.234375 0l0 2.8125zm19.671879 0l-16.593754 0l0 -2.8125l16.593754 0l0 2.8125zm-5.34375 -18.453125l0.359375 -2.90625q2.546875 0.6875 3.953125 2.546875q1.40625 1.859375 1.40625 4.75q0 3.640625 -2.234375 5.78125q-2.25 2.125 -6.296875 2.125q-4.187504 0 -6.500004 -2.15625q-2.3125 -2.15625 -2.3125 -5.59375q0 -3.328125 2.265625 -5.4375q2.265625 -2.109375 6.375004 -2.109375q0.25 0 0.75 0.015625l0 12.375q2.734375 -0.15625 4.1875 -1.546875q1.453125 -1.390625 1.453125 -3.46875q0 -1.546875 -0.8125 -2.640625q-0.8125 -1.09375 -2.59375 -1.734375zm-4.546875 9.234375l0 -9.265625q-2.0937538 0.1875 -3.1406288 1.0625q-1.625 1.34375 -1.625 3.484375q0 1.9375 1.296875 3.265625q1.296875 1.3125 3.4687538 1.453125zm9.890625 -15.671875l-16.593754 0l0 -2.53125l2.359375 0q-2.734375 -1.828125 -2.734375 -5.28125q0 -1.5 0.546875 -2.75q0.53125 -1.265625 1.40625 -1.890625q0.875 -0.625 2.078125 -0.875q0.78125 -0.15625 2.7343788 -0.15625l10.203125 0l0 2.8125l-10.09375 0q-1.7187538 0 -2.5625038 0.328125q-0.859375 0.328125 -1.359375 1.171875q-0.515625 0.828125 -0.515625 1.953125q0 1.796875 1.140625 3.109375q1.140625 1.296875 4.328129 1.296875l9.0625 0l0 2.8125zm-2.515625 -23.9375l2.484375 -0.40625q0.25 1.1875 0.25 2.125q0 1.53125 -0.484375 2.375q-0.484375 0.84375 -1.265625 1.1875q-0.796875 0.34375 -3.328125 0.34375l-9.546879 0l0 2.0625l-2.1875 0l0 -2.0625l-4.109375 0l-1.6875 -2.796875l5.796875 0l0 -2.828125l2.1875 0l0 2.828125l9.703129 0q1.203125 0 1.546875 -0.140625q0.34375 -0.15625 0.546875 -0.484375q0.203125 -0.34375 0.203125 -0.96875q0 -0.46875 -0.109375 -1.234375zm-17.156254 -2.765625l-3.234375 0l0 -2.8125l3.234375 0l0 2.8125zm19.671879 0l-16.593754 0l0 -2.8125l16.593754 0l0 2.8125zm0 -7.765625l-14.406254 0l0 2.484375l-2.1875 0l0 -2.484375l-1.765625 0q-1.671875 0 -2.484375 -0.296875q-1.09375 -0.40625 -1.765625 -1.421875q-0.6875 -1.03125 -0.6875 -2.875q0 -1.1875 0.28125 -2.625l2.453125 0.421875q-0.15625 0.875 -0.15625 1.65625q0 1.28125 0.546875 1.8125q0.546875 0.53125 2.046875 0.53125l1.53125 0l0 -3.234375l2.1875 0l0 3.234375l14.406254 0l0 2.796875zm-19.671879 -8.234375l-3.234375 0l0 -2.8125l3.234375 0l0 2.8125zm19.671879 0l-16.593754 0l0 -2.8125l16.593754 0l0 2.8125zm-6.078125 -17.921875l0.359375 -2.765625q2.859375 0.453125 4.484375 2.328125q1.609375 1.859375 1.609375 4.578125q0 3.40625 -2.21875 5.484375q-2.234375 2.0625 -6.390625 2.0625q-2.6875 0 -4.703129 -0.890625q-2.015625 -0.890625 -3.015625 -2.703125q-1.015625 -1.828125 -1.015625 -3.96875q0 -2.703125 1.375 -4.421875q1.359375 -1.71875 3.875 -2.203125l0.4218788 2.734375q-1.6718788 0.390625 -2.5156288 1.390625q-0.84375 0.984375 -0.84375 2.390625q0 2.125 1.53125 3.453125q1.515625 1.328125 4.812504 1.328125q3.34375 0 4.859375 -1.28125q1.515625 -1.28125 1.515625 -3.34375q0 -1.65625 -1.015625 -2.765625q-1.015625 -1.109375 -3.125 -1.40625zm-1.953125 -30.76564l0.765625 -3.03125q3.734375 0.953125 5.703125 3.4375q1.953125 2.46875 1.953125 6.046875q0 3.7031403 -1.5 6.0312653q-1.515625 2.3125 -4.375 3.53125q-2.859375 1.203125 -6.140629 1.203125q-3.578125 0 -6.234375 -1.359375q-2.671875 -1.375 -4.046875 -3.890625q-1.390625 -2.5312653 -1.390625 -5.5625153q0 -3.4375 1.75 -5.78125q1.75 -2.34375 4.921875 -3.265625l0.703125 2.984375q-2.5 0.796875 -3.640625 2.3125q-1.140625 1.515625 -1.140625 3.8125q0 2.640625 1.265625 4.4218903q1.265625 1.765625 3.40625 2.484375q2.125 0.71875 4.390625 0.71875q2.9218788 0 5.109379 -0.84375q2.171875 -0.859375 3.25 -2.65625q1.078125 -1.7968903 1.078125 -3.8906403q0 -2.546875 -1.46875 -4.3125q-1.46875 -1.765625 -4.359375 -2.390625zm-0.265625 -5.359375q-4.609379 0 -6.828129 -2.5625q-1.84375 -2.140625 -1.84375 -5.21875q0 -3.421875 2.25 -5.59375q2.234375 -2.171875 6.187504 -2.171875q3.203125 0 5.046875 0.96875q1.828125 0.953125 2.84375 2.796875q1.015625 1.828125 1.015625 4.0q0 3.484375 -2.234375 5.640625q-2.234375 2.140625 -6.4375 2.140625zm0 -2.890625q3.1875 0 4.78125 -1.390625q1.578125 -1.390625 1.578125 -3.5q0 -2.09375 -1.59375 -3.484375q-1.59375 -1.390625 -4.859375 -1.390625q-3.078125 0 -4.656254 1.40625q-1.59375 1.390625 -1.59375 3.46875q0 2.109375 1.578125 3.5q1.5781288 1.390625 4.765629 1.390625zm8.296875 -15.953125l-16.593754 0l0 -2.5156403l2.328125 0q-1.21875 -0.78125 -1.953125 -2.078125q-0.75 -1.296875 -0.75 -2.953125q0 -1.84375 0.765625 -3.015625q0.765625 -1.1875 2.140625 -1.671875q-2.90625 -1.96875 -2.90625 -5.125q0 -2.46875 1.375 -3.796875q1.359375 -1.328125 4.203129 -1.328125l11.390625 0l0 2.796875l-10.453125 0q-1.6875038 0 -2.4218788 0.28125q-0.75 0.265625 -1.203125 0.984375q-0.453125 0.71875 -0.453125 1.6875q0 1.75 1.171875 2.90625q1.15625 1.15625 3.7187538 1.15625l9.640625 0l0 2.8125l-10.78125 0q-1.8750038 0 -2.8125038 0.6875q-0.9375 0.6875 -0.9375 2.25q0 1.1875 0.625 2.203125q0.625 1.0 1.828125 1.453125q1.2031288 0.453125 3.4687538 0.453125l8.609375 0l0 2.8125153zm6.359375 -26.656265l-22.953129 0l0 -2.5625l2.15625 0q-1.265625 -0.90625 -1.890625 -2.046875q-0.640625 -1.140625 -0.640625 -2.765625q0 -2.125 1.09375 -3.75q1.09375 -1.625 3.09375 -2.453125q1.9843788 -0.828125 4.359379 -0.828125q2.546875 0 4.59375 0.921875q2.03125 0.90625 3.125 2.65625q1.078125 1.734375 1.078125 3.65625q0 1.40625 -0.59375 2.53125q-0.59375 1.109375 -1.5 1.828125l8.078125 0l0 2.8125zm-14.5625 -2.546875q3.203125 0 4.734375 -1.296875q1.53125 -1.296875 1.53125 -3.140625q0 -1.875 -1.578125 -3.203125q-1.59375 -1.34375 -4.921875 -1.34375q-3.1718788 0 -4.750004 1.3125q-1.578125 1.296875 -1.578125 3.109375q0 1.796875 1.6875 3.1875q1.6718788 1.375 4.875004 1.375zm8.203125 -26.125l-2.4375 0q2.8125 1.9375 2.8125 5.265625q0 1.46875 -0.5625 2.75q-0.5625 1.265625 -1.40625 1.890625q-0.859375 0.609375 -2.09375 0.859375q-0.828125 0.171875 -2.625 0.171875l-10.281254 0l0 -2.8125l9.203129 0q2.203125 0 2.96875 -0.171875q1.109375 -0.265625 1.75 -1.125q0.625 -0.859375 0.625 -2.125q0 -1.265625 -0.640625 -2.375q-0.65625 -1.109375 -1.765625 -1.5625q-1.125 -0.46875 -3.25 -0.46875l-8.890629 0l0 -2.8125l16.593754 0l0 2.515625zm-2.515625 -13.0625l2.484375 -0.40625q0.25 1.1875 0.25 2.125q0 1.53125 -0.484375 2.375q-0.484375 0.84375 -1.265625 1.1875q-0.796875 0.34375 -3.328125 0.34375l-9.546879 0l0 2.0625l-2.1875 0l0 -2.0625l-4.109375 0l-1.6875 -2.796875l5.796875 0l0 -2.828125l2.1875 0l0 2.828125l9.703129 0q1.203125 0 1.546875 -0.140625q0.34375 -0.15625 0.546875 -0.484375q0.203125 -0.34375 0.203125 -0.96875q0 -0.46875 -0.109375 -1.234375zm-17.156254 -2.765625l-3.234375 0l0 -2.8125l3.234375 0l0 2.8125zm19.671879 0l-16.593754 0l0 -2.8125l16.593754 0l0 2.8125zm0 -7.09375l-16.593754 0l0 -2.53125l2.359375 0q-2.734375 -1.828125 -2.734375 -5.28125q0 -1.5 0.546875 -2.75q0.53125 -1.265625 1.40625 -1.890625q0.875 -0.625 2.078125 -0.875q0.78125 -0.15625 2.7343788 -0.15625l10.203125 0l0 2.8125l-10.09375 0q-1.7187538 0 -2.5625038 0.328125q-0.859375 0.328125 -1.359375 1.171875q-0.515625 0.828125 -0.515625 1.953125q0 1.796875 1.140625 3.109375q1.140625 1.296875 4.328129 1.296875l9.0625 0l0 2.8125zm1.375 -17.281242l0.40625 -2.734375q1.265625 -0.171875 1.84375 -0.953125q0.78125 -1.046875 0.78125 -2.859375q0 -1.953125 -0.78125 -3.015625q-0.78125 -1.0625 -2.1875 -1.4375q-0.859375 -0.21875 -3.609375 -0.203125q2.171875 1.84375 2.171875 4.59375q0 3.421875 -2.46875 5.296875q-2.46875 1.875 -5.921875 1.875q-2.375 0 -4.375004 -0.859375q-2.015625 -0.859375 -3.109375 -2.484375q-1.09375 -1.640625 -1.09375 -3.84375q0 -2.9375 2.375 -4.84375l-2.0 0l0 -2.59375l14.343754 0q3.875 0 5.484375 0.796875q1.625 0.78125 2.5625 2.5q0.9375 1.703125 0.9375 4.203125q0 2.96875 -1.34375 4.796875q-1.328125 1.828125 -4.015625 1.765625zm-9.96875 -2.328125q3.265625 0 4.765625 -1.296875q1.5 -1.296875 1.5 -3.25q0 -1.9375 -1.484375 -3.25q-1.5 -1.3125 -4.6875 -1.3125q-3.046875 0 -4.593754 1.359375q-1.546875 1.34375 -1.546875 3.25q0 1.875 1.53125 3.1875q1.515625 1.3125 4.515629 1.3125z" fill-rule="nonzero"/><path fill="#000000" fill-opacity="0.0" d="m914.2231 49.212597l0 441.57483l-58.173218 0l0 -441.57483z" fill-rule="evenodd"/><path fill="#000000" d="m874.5031 92.10156l22.90625 0l0 15.453125l-2.703125 0l0 -12.421875l-7.09375 0l0 10.75l-2.703125 0l0 -10.75l-10.40625 0l0 -3.03125zm0 29.90625l2.4375 0q-2.8125 -1.9375 -2.8125 -5.265625q0 -1.46875 0.5625 -2.75q0.5625 -1.265625 1.40625 -1.890625q0.859375 -0.609375 2.09375 -0.859375q0.828125 -0.171875 2.625 -0.171875l10.28125 0l0 2.8125l-9.203125 0q-2.203125 0 -2.96875 0.171875q-1.109375 0.265625 -1.75 1.125q-0.625 0.859375 -0.625 2.125q0 1.265625 0.640625 2.375q0.65625 1.109375 1.765625 1.5625q1.125 0.46875 3.25 0.46875l8.890625 0l0 2.8125l-16.59375 0l0 -2.515625zm0 6.921875l16.59375 0l0 2.53125l-2.359375 0q2.734375 1.828125 2.734375 5.28125q0 1.5 -0.546875 2.75q-0.53125 1.265625 -1.40625 1.890625q-0.875 0.625 -2.078125 0.875q-0.78125 0.15625 -2.734375 0.15625l-10.203125 0l0 -2.8125l10.09375 0q1.71875 0 2.5625 -0.328125q0.859375 -0.328125 1.359375 -1.171875q0.515625 -0.828125 0.515625 -1.953125q0 -1.796875 -1.140625 -3.109375q-1.140625 -1.296875 -4.328125 -1.296875l-9.0625 0l0 -2.8125zm6.078125 28.625l-0.359375 2.765625q-2.859375 -0.453125 -4.484375 -2.328125q-1.609375 -1.859375 -1.609375 -4.578125q0 -3.40625 2.21875 -5.484375q2.234375 -2.0625 6.390625 -2.0625q2.6875 0 4.703125 0.890625q2.015625 0.890625 3.015625 2.703125q1.015625 1.828125 1.015625 3.96875q0 2.703125 -1.375 4.421875q-1.359375 1.71875 -3.875 2.203125l-0.421875 -2.734375q1.671875 -0.390625 2.515625 -1.390625q0.84375 -0.984375 0.84375 -2.390625q0 -2.125 -1.53125 -3.453125q-1.515625 -1.328125 -4.8125 -1.328125q-3.34375 0 -4.859375 1.28125q-1.515625 1.28125 -1.515625 3.34375q0 1.65625 1.015625 2.765625q1.015625 1.109375 3.125 1.40625zm-3.5625 11.3125l-2.484375 0.40625q-0.25 -1.1875 -0.25 -2.125q0 -1.53125 0.484375 -2.375q0.484375 -0.84375 1.265625 -1.1875q0.796875 -0.34375 3.328125 -0.34375l9.546875 0l0 -2.0625l2.1875 0l0 2.0625l4.109375 0l1.6875 2.796875l-5.796875 0l0 2.828125l-2.1875 0l0 -2.828125l-9.703125 0q-1.203125 0 -1.546875 0.140625q-0.34375 0.15625 -0.546875 0.484375q-0.203125 0.34375 -0.203125 0.96875q0 0.46875 0.109375 1.234375zm17.15625 2.765625l3.234375 0l0 2.8125l-3.234375 0l0 -2.8125zm-19.671875 0l16.59375 0l0 2.8125l-16.59375 0l0 -2.8125zm8.296875 6.046875q4.609375 0 6.828125 2.5625q1.84375 2.140625 1.84375 5.21875q0 3.421875 -2.25 5.59375q-2.234375 2.171875 -6.1875 2.171875q-3.203125 0 -5.046875 -0.96875q-1.828125 -0.953125 -2.84375 -2.796875q-1.015625 -1.828125 -1.015625 -4.0q0 -3.484375 2.234375 -5.640625q2.234375 -2.140625 6.4375 -2.140625zm0 2.890625q-3.1875 0 -4.78125 1.390625q-1.578125 1.390625 -1.578125 3.5q0 2.09375 1.59375 3.484375q1.59375 1.390625 4.859375 1.390625q3.078125 0 4.65625 -1.40625q1.59375 -1.390625 1.59375 -3.46875q0 -2.109375 -1.578125 -3.5q-1.578125 -1.390625 -4.765625 -1.390625zm-8.296875 15.953125l16.59375 0l0 2.53125l-2.359375 0q2.734375 1.828125 2.734375 5.28125q0 1.5 -0.546875 2.75q-0.53125 1.265625 -1.40625 1.890625q-0.875 0.625 -2.078125 0.875q-0.78125 0.15625 -2.734375 0.15625l-10.203125 0l0 -2.8125l10.09375 0q1.71875 0 2.5625 -0.328125q0.859375 -0.328125 1.359375 -1.171875q0.515625 -0.828125 0.515625 -1.953125q0 -1.796875 -1.140625 -3.109375q-1.140625 -1.296875 -4.328125 -1.296875l-9.0625 0l0 -2.8125zm0 32.296875l20.203125 0l0 -7.546875l2.703125 0l0 18.15625l-2.703125 0l0 -7.578125l-20.203125 0l0 -3.03125zm0 12.140625l16.59375 0l0 2.53125l-2.515625 0q1.765625 0.96875 2.328125 1.78125q0.5625 0.828125 0.5625 1.8125q0 1.421875 -0.90625 2.890625l-2.609375 -0.96875q0.609375 -1.03125 0.609375 -2.0625q0 -0.921875 -0.5625 -1.65625q-0.546875 -0.734375 -1.53125 -1.046875q-1.5 -0.46875 -3.28125 -0.46875l-8.6875 0l0 -2.8125zm2.046875 21.515625q-1.328125 -1.5625 -1.875 -3.015625q-0.546875 -1.4375 -0.546875 -3.09375q0 -2.734375 1.328125 -4.203125q1.34375 -1.46875 3.421875 -1.46875q1.21875 0 2.21875 0.546875q1.015625 0.5625 1.625 1.453125q0.609375 0.90625 0.921875 2.03125q0.21875 0.828125 0.421875 2.5q0.40625 3.40625 0.96875 5.015625q0.578125 0.015625 0.734375 0.015625q1.71875 0 2.421875 -0.796875q0.953125 -1.078125 0.953125 -3.203125q0 -1.984375 -0.703125 -2.9375q-0.6875 -0.9375 -2.453125 -1.390625l0.375 -2.75q1.765625 0.375 2.84375 1.234375q1.09375 0.859375 1.671875 2.484375q0.59375 1.625 0.59375 3.765625q0 2.125 -0.5 3.453125q-0.5 1.328125 -1.265625 1.953125q-0.75 0.625 -1.90625 0.875q-0.71875 0.140625 -2.59375 0.140625l-3.75 0q-3.921875 0 -4.96875 0.171875q-1.03125 0.1875 -1.984375 0.71875l0 -2.9375q0.875 -0.4375 2.046875 -0.5625zm6.28125 -0.234375q-0.625 -1.53125 -1.0625 -4.59375q-0.25 -1.734375 -0.5625 -2.453125q-0.3125 -0.71875 -0.921875 -1.109375q-0.59375 -0.390625 -1.328125 -0.390625q-1.125 0 -1.875 0.84375q-0.75 0.859375 -0.75 2.5q0 1.625 0.703125 2.890625q0.71875 1.265625 1.953125 1.859375q0.953125 0.453125 2.8125 0.453125l1.03125 0zm-8.328125 7.203125l16.59375 0l0 2.53125l-2.359375 0q2.734375 1.828125 2.734375 5.28125q0 1.5 -0.546875 2.75q-0.53125 1.265625 -1.40625 1.890625q-0.875 0.625 -2.078125 0.875q-0.78125 0.15625 -2.734375 0.15625l-10.203125 0l0 -2.8125l10.09375 0q1.71875 0 2.5625 -0.328125q0.859375 -0.328125 1.359375 -1.171875q0.515625 -0.828125 0.515625 -1.953125q0 -1.796875 -1.140625 -3.109375q-1.140625 -1.296875 -4.328125 -1.296875l-9.0625 0l0 -2.8125zm4.953125 16.671875l0.4375 2.78125q-1.671875 0.234375 -2.5625 1.296875q-0.890625 1.078125 -0.890625 3.0q0 1.9375 0.78125 2.875q0.796875 0.9375 1.859375 0.9375q0.953125 0 1.5 -0.828125q0.375 -0.578125 0.953125 -2.875q0.78125 -3.09375 1.34375 -4.296875q0.578125 -1.1875 1.578125 -1.8125q1.015625 -0.609375 2.234375 -0.609375q1.109375 0 2.046875 0.5q0.953125 0.515625 1.578125 1.390625q0.484375 0.65625 0.8125 1.78125q0.34375 1.140625 0.34375 2.4375q0 1.953125 -0.5625 3.421875q-0.5625 1.484375 -1.53125 2.1875q-0.953125 0.703125 -2.5625 0.96875l-0.375 -2.75q1.28125 -0.1875 2.0 -1.09375q0.71875 -0.890625 0.71875 -2.53125q0 -1.9375 -0.640625 -2.765625q-0.640625 -0.828125 -1.5 -0.828125q-0.546875 0 -0.984375 0.34375q-0.453125 0.34375 -0.75 1.078125q-0.15625 0.421875 -0.71875 2.484375q-0.796875 2.984375 -1.3125 4.15625q-0.5 1.1875 -1.46875 1.859375q-0.96875 0.671875 -2.40625 0.671875q-1.40625 0 -2.65625 -0.828125q-1.234375 -0.8125 -1.921875 -2.359375q-0.671875 -1.546875 -0.671875 -3.5q0 -3.234375 1.34375 -4.9375q1.34375 -1.6875 3.984375 -2.15625zm-4.953125 17.796875l14.40625 0l0 -2.484375l2.1875 0l0 2.484375l1.765625 0q1.671875 0 2.484375 0.296875q1.09375 0.40625 1.765625 1.421875q0.6875 1.03125 0.6875 2.875q0 1.1875 -0.28125 2.625l-2.453125 -0.421875q0.15625 -0.875 0.15625 -1.65625q0 -1.28125 -0.546875 -1.8125q-0.546875 -0.53125 -2.046875 -0.53125l-1.53125 0l0 3.234375l-2.1875 0l0 -3.234375l-14.40625 0l0 -2.796875zm8.296875 7.171875q4.609375 0 6.828125 2.5625q1.84375 2.140625 1.84375 5.21875q0 3.421875 -2.25 5.59375q-2.234375 2.171875 -6.1875 2.171875q-3.203125 0 -5.046875 -0.96875q-1.828125 -0.953125 -2.84375 -2.796875q-1.015625 -1.828125 -1.015625 -4.0q0 -3.484375 2.234375 -5.640625q2.234375 -2.140625 6.4375 -2.140625zm0 2.890625q-3.1875 0 -4.78125 1.390625q-1.578125 1.390625 -1.578125 3.5q0 2.09375 1.59375 3.484375q1.59375 1.390625 4.859375 1.390625q3.078125 0 4.65625 -1.40625q1.59375 -1.390625 1.59375 -3.46875q0 -2.109375 -1.578125 -3.5q-1.578125 -1.390625 -4.765625 -1.390625zm-8.296875 15.921875l16.59375 0l0 2.53125l-2.515625 0q1.765625 0.96875 2.328125 1.78125q0.5625 0.828125 0.5625 1.8125q0 1.421875 -0.90625 2.890625l-2.609375 -0.96875q0.609375 -1.03125 0.609375 -2.0625q0 -0.921875 -0.5625 -1.65625q-0.546875 -0.734375 -1.53125 -1.046875q-1.5 -0.46875 -3.28125 -0.46875l-8.6875 0l0 -2.8125zm0 10.6875l16.59375 0l0 2.515625l-2.328125 0q1.21875 0.78125 1.953125 2.078125q0.75 1.296875 0.75 2.953125q0 1.84375 -0.765625 3.015625q-0.765625 1.1875 -2.140625 1.671875q2.90625 1.96875 2.90625 5.125q0 2.46875 -1.375 3.796875q-1.359375 1.328125 -4.203125 1.328125l-11.390625 0l0 -2.796875l10.453125 0q1.6875 0 2.421875 -0.28125q0.75 -0.265625 1.203125 -0.984375q0.453125 -0.71875 0.453125 -1.6875q0 -1.75 -1.171875 -2.90625q-1.15625 -1.15625 -3.71875 -1.15625l-9.640625 0l0 -2.8125l10.78125 0q1.875 0 2.8125 -0.6875q0.9375 -0.6875 0.9375 -2.25q0 -1.1875 -0.625 -2.203125q-0.625 -1.0 -1.828125 -1.453125q-1.203125 -0.453125 -3.46875 -0.453125l-8.609375 0l0 -2.8125zm2.046875 37.484375q-1.328125 -1.5625 -1.875 -3.015625q-0.546875 -1.4375 -0.546875 -3.09375q0 -2.734375 1.328125 -4.203125q1.34375 -1.46875 3.421875 -1.46875q1.21875 0 2.21875 0.546875q1.015625 0.5625 1.625 1.453125q0.609375 0.90625 0.921875 2.03125q0.21875 0.828125 0.421875 2.5q0.40625 3.40625 0.96875 5.015625q0.578125 0.015625 0.734375 0.015625q1.71875 0 2.421875 -0.796875q0.953125 -1.078125 0.953125 -3.203125q0 -1.984375 -0.703125 -2.9375q-0.6875 -0.9375 -2.453125 -1.390625l0.375 -2.75q1.765625 0.375 2.84375 1.234375q1.09375 0.859375 1.671875 2.484375q0.59375 1.625 0.59375 3.765625q0 2.125 -0.5 3.453125q-0.5 1.328125 -1.265625 1.953125q-0.75 0.625 -1.90625 0.875q-0.71875 0.140625 -2.59375 0.140625l-3.75 0q-3.921875 0 -4.96875 0.171875q-1.03125 0.1875 -1.984375 0.71875l0 -2.9375q0.875 -0.4375 2.046875 -0.5625zm6.28125 -0.234375q-0.625 -1.53125 -1.0625 -4.59375q-0.25 -1.734375 -0.5625 -2.453125q-0.3125 -0.71875 -0.921875 -1.109375q-0.59375 -0.390625 -1.328125 -0.390625q-1.125 0 -1.875 0.84375q-0.75 0.859375 -0.75 2.5q0 1.625 0.703125 2.890625q0.71875 1.265625 1.953125 1.859375q0.953125 0.453125 2.8125 0.453125l1.03125 0zm-5.8125 13.34375l-2.484375 0.40625q-0.25 -1.1875 -0.25 -2.125q0 -1.53125 0.484375 -2.375q0.484375 -0.84375 1.265625 -1.1875q0.796875 -0.34375 3.328125 -0.34375l9.546875 0l0 -2.0625l2.1875 0l0 2.0625l4.109375 0l1.6875 2.796875l-5.796875 0l0 2.828125l-2.1875 0l0 -2.828125l-9.703125 0q-1.203125 0 -1.546875 0.140625q-0.34375 0.15625 -0.546875 0.484375q-0.203125 0.34375 -0.203125 0.96875q0 0.46875 0.109375 1.234375zm17.15625 2.765625l3.234375 0l0 2.8125l-3.234375 0l0 -2.8125zm-19.671875 0l16.59375 0l0 2.8125l-16.59375 0l0 -2.8125zm8.296875 6.046875q4.609375 0 6.828125 2.5625q1.84375 2.140625 1.84375 5.21875q0 3.421875 -2.25 5.59375q-2.234375 2.171875 -6.1875 2.171875q-3.203125 0 -5.046875 -0.96875q-1.828125 -0.953125 -2.84375 -2.796875q-1.015625 -1.828125 -1.015625 -4.0q0 -3.484375 2.234375 -5.640625q2.234375 -2.140625 6.4375 -2.140625zm0 2.890625q-3.1875 0 -4.78125 1.390625q-1.578125 1.390625 -1.578125 3.5q0 2.09375 1.59375 3.484375q1.59375 1.390625 4.859375 1.390625q3.078125 0 4.65625 -1.40625q1.59375 -1.390625 1.59375 -3.46875q0 -2.109375 -1.578125 -3.5q-1.578125 -1.390625 -4.765625 -1.390625zm-8.296875 15.953125l16.59375 0l0 2.53125l-2.359375 0q2.734375 1.828125 2.734375 5.28125q0 1.5 -0.546875 2.75q-0.53125 1.265625 -1.40625 1.890625q-0.875 0.625 -2.078125 0.875q-0.78125 0.15625 -2.734375 0.15625l-10.203125 0l0 -2.8125l10.09375 0q1.71875 0 2.5625 -0.328125q0.859375 -0.328125 1.359375 -1.171875q0.515625 -0.828125 0.515625 -1.953125q0 -1.796875 -1.140625 -3.109375q-1.140625 -1.296875 -4.328125 -1.296875l-9.0625 0l0 -2.8125zm4.953125 16.671875l0.4375 2.78125q-1.671875 0.234375 -2.5625 1.296875q-0.890625 1.078125 -0.890625 3.0q0 1.9375 0.78125 2.875q0.796875 0.9375 1.859375 0.9375q0.953125 0 1.5 -0.828125q0.375 -0.578125 0.953125 -2.875q0.78125 -3.09375 1.34375 -4.296875q0.578125 -1.1875 1.578125 -1.8125q1.015625 -0.609375 2.234375 -0.609375q1.109375 0 2.046875 0.5q0.953125 0.515625 1.578125 1.390625q0.484375 0.65625 0.8125 1.78125q0.34375 1.140625 0.34375 2.4375q0 1.953125 -0.5625 3.421875q-0.5625 1.484375 -1.53125 2.1875q-0.953125 0.703125 -2.5625 0.96875l-0.375 -2.75q1.28125 -0.1875 2.0 -1.09375q0.71875 -0.890625 0.71875 -2.53125q0 -1.9375 -0.640625 -2.765625q-0.640625 -0.828125 -1.5 -0.828125q-0.546875 0 -0.984375 0.34375q-0.453125 0.34375 -0.75 1.078125q-0.15625 0.421875 -0.71875 2.484375q-0.796875 2.984375 -1.3125 4.15625q-0.5 1.1875 -1.46875 1.859375q-0.96875 0.671875 -2.40625 0.671875q-1.40625 0 -2.65625 -0.828125q-1.234375 -0.8125 -1.921875 -2.359375q-0.671875 -1.546875 -0.671875 -3.5q0 -3.234375 1.34375 -4.9375q1.34375 -1.6875 3.984375 -2.15625z" fill-rule="nonzero"/><path fill="#ffffff" fill-opacity="0.9101" d="m232.66011 51.1464l0 0c0 -4.0729637 3.3017883 -7.374752 7.3747406 -7.374752l479.92767 0c1.9558716 0 3.831726 0.77698135 5.2147217 2.160015c1.3830566 1.3830338 2.1600342 3.258831 2.1600342 5.214737l0 50.037903c0 4.07296 -3.3018188 7.374748 -7.374756 7.374748l-479.92767 0c-4.0729523 0 -7.3747406 -3.3017883 -7.3747406 -7.374748z" fill-rule="evenodd"/><path stroke="#000000" stroke-width="2.0" stroke-linejoin="round" stroke-linecap="butt" d="m232.66011 51.1464l0 0c0 -4.0729637 3.3017883 -7.374752 7.3747406 -7.374752l479.92767 0c1.9558716 0 3.831726 0.77698135 5.2147217 2.160015c1.3830566 1.3830338 2.1600342 3.258831 2.1600342 5.214737l0 50.037903c0 4.07296 -3.3018188 7.374748 -7.374756 7.374748l-479.92767 0c-4.0729523 0 -7.3747406 -3.3017883 -7.3747406 -7.374748z" fill-rule="evenodd"/><path fill="#000000" fill-opacity="0.0" d="m259.21127 48.700787l441.5748 0l0 54.929134l-441.5748 0z" fill-rule="evenodd"/><path fill="#000000" d="m319.22272 79.90766l2.5 -0.34375q0.109375 2.40625 0.90625 3.296875q0.8125 0.875 2.21875 0.875q1.046875 0 1.796875 -0.46875q0.765625 -0.484375 1.046875 -1.296875q0.296875 -0.828125 0.296875 -2.640625l0 -14.46875l2.78125 0l0 14.3125q0 2.640625 -0.640625 4.09375q-0.640625 1.4375 -2.03125 2.203125q-1.375 0.75 -3.234375 0.75q-2.765625 0 -4.234375 -1.59375q-1.46875 -1.59375 -1.40625 -4.71875zm25.726562 5.953125l0 -2.234375q-1.78125 2.578125 -4.828125 2.578125q-1.34375 0 -2.515625 -0.515625q-1.171875 -0.515625 -1.734375 -1.296875q-0.5625 -0.78125 -0.796875 -1.90625q-0.15625 -0.765625 -0.15625 -2.40625l0 -9.421875l2.578125 0l0 8.421875q0 2.03125 0.15625 2.734375q0.25 1.015625 1.03125 1.59375q0.796875 0.578125 1.953125 0.578125q1.15625 0 2.171875 -0.59375q1.015625 -0.59375 1.4375 -1.609375q0.421875 -1.03125 0.421875 -2.984375l0 -8.140625l2.578125 0l0 15.203125l-2.296875 0zm5.310913 -4.546875l2.546875 -0.390625q0.21875 1.53125 1.1875 2.34375q0.984375 0.8125 2.75 0.8125q1.78125 0 2.640625 -0.71875q0.859375 -0.71875 0.859375 -1.703125q0 -0.859375 -0.765625 -1.375q-0.53125 -0.34375 -2.640625 -0.859375q-2.828125 -0.71875 -3.921875 -1.234375q-1.09375 -0.53125 -1.671875 -1.453125q-0.5625 -0.921875 -0.5625 -2.046875q0 -1.015625 0.46875 -1.875q0.46875 -0.875 1.265625 -1.453125q0.609375 -0.4375 1.640625 -0.734375q1.046875 -0.3125 2.234375 -0.3125q1.78125 0 3.125 0.515625q1.359375 0.515625 2.0 1.390625q0.65625 0.875 0.890625 2.359375l-2.515625 0.34375q-0.171875 -1.171875 -1.0 -1.828125q-0.8125 -0.671875 -2.3125 -0.671875q-1.78125 0 -2.546875 0.59375q-0.75 0.578125 -0.75 1.375q0 0.5 0.3125 0.90625q0.3125 0.40625 0.984375 0.6875q0.390625 0.140625 2.28125 0.65625q2.734375 0.734375 3.8125 1.203125q1.078125 0.453125 1.6875 1.34375q0.625 0.890625 0.625 2.203125q0 1.296875 -0.75 2.4375q-0.75 1.125 -2.171875 1.75q-1.421875 0.625 -3.203125 0.625q-2.96875 0 -4.53125 -1.234375q-1.546875 -1.234375 -1.96875 -3.65625zm21.320312 2.234375l0.375 2.28125q-1.09375 0.234375 -1.953125 0.234375q-1.40625 0 -2.1875 -0.4375q-0.765625 -0.453125 -1.078125 -1.171875q-0.3125 -0.734375 -0.3125 -3.046875l0 -8.75l-1.890625 0l0 -2.0l1.890625 0l0 -3.765625l2.5625 -1.546875l0 5.3125l2.59375 0l0 2.0l-2.59375 0l0 8.890625q0 1.109375 0.125 1.421875q0.140625 0.3125 0.453125 0.5q0.3125 0.1875 0.890625 0.1875q0.421875 0 1.125 -0.109375zm1.5233154 -3.984375l0 -2.59375l7.90625 0l0 2.59375l-7.90625 0zm10.7821045 -11.734375l0 -2.96875l2.578125 0l0 2.96875l-2.578125 0zm0 18.03125l0 -15.203125l2.578125 0l0 15.203125l-2.578125 0zm6.5001526 0l0 -15.203125l2.3125 0l0 2.15625q1.671875 -2.5 4.84375 -2.5q1.375 0 2.53125 0.5q1.15625 0.484375 1.71875 1.296875q0.578125 0.796875 0.8125 1.890625q0.140625 0.71875 0.140625 2.515625l0 9.34375l-2.578125 0l0 -9.25q0 -1.578125 -0.3125 -2.359375q-0.296875 -0.78125 -1.0625 -1.234375q-0.765625 -0.46875 -1.796875 -0.46875q-1.640625 0 -2.84375 1.046875q-1.1875 1.03125 -1.1875 3.953125l0 8.3125l-2.578125 0zm15.310913 -6.296875l0 -2.59375l7.90625 0l0 2.59375l-7.90625 0zm16.438385 6.296875l0 -18.515625l-6.921875 0l0 -2.484375l16.640625 0l0 2.484375l-6.953125 0l0 18.515625l-2.765625 0zm11.169983 -18.03125l0 -2.96875l2.578125 0l0 2.96875l-2.578125 0zm0 18.03125l0 -15.203125l2.578125 0l0 15.203125l-2.578125 0zm6.5001526 0l0 -15.203125l2.296875 0l0 2.125q0.71875 -1.109375 1.90625 -1.78125q1.1875 -0.6875 2.703125 -0.6875q1.703125 0 2.78125 0.703125q1.078125 0.6875 1.515625 1.953125q1.8125 -2.65625 4.703125 -2.65625q2.265625 0 3.484375 1.25q1.21875 1.25 1.21875 3.859375l0 10.4375l-2.5625 0l0 -9.578125q0 -1.546875 -0.265625 -2.21875q-0.25 -0.6875 -0.90625 -1.09375q-0.65625 -0.421875 -1.546875 -0.421875q-1.59375 0 -2.65625 1.0625q-1.0625 1.0625 -1.0625 3.421875l0 8.828125l-2.578125 0l0 -9.875q0 -1.71875 -0.640625 -2.578125q-0.625 -0.859375 -2.046875 -0.859375q-1.09375 0 -2.015625 0.578125q-0.921875 0.5625 -1.34375 1.671875q-0.40625 1.09375 -0.40625 3.171875l0 7.890625l-2.578125 0zm34.836823 -4.890625l2.65625 0.328125q-0.625 2.328125 -2.328125 3.625q-1.703125 1.28125 -4.359375 1.28125q-3.328125 0 -5.28125 -2.046875q-1.953125 -2.0625 -1.953125 -5.765625q0 -3.84375 1.96875 -5.953125q1.984375 -2.125 5.125 -2.125q3.0625 0 4.984375 2.078125q1.9375 2.0625 1.9375 5.84375q0 0.21875 -0.015625 0.671875l-11.34375 0q0.140625 2.515625 1.421875 3.84375q1.28125 1.328125 3.171875 1.328125q1.421875 0 2.421875 -0.734375q1.0 -0.75 1.59375 -2.375zm-8.46875 -4.171875l8.5 0q-0.171875 -1.921875 -0.96875 -2.875q-1.234375 -1.5 -3.203125 -1.5q-1.765625 0 -2.984375 1.1875q-1.203125 1.1875 -1.34375 3.1875zm37.818573 1.703125l2.78125 0.703125q-0.875 3.421875 -3.140625 5.21875q-2.265625 1.796875 -5.546875 1.796875q-3.390625 0 -5.515625 -1.375q-2.125 -1.390625 -3.25 -4.0q-1.109375 -2.625 -1.109375 -5.640625q0 -3.28125 1.25 -5.71875q1.265625 -2.4375 3.578125 -3.703125q2.3125 -1.28125 5.09375 -1.28125q3.140625 0 5.28125 1.609375q2.15625 1.609375 3.0 4.515625l-2.734375 0.640625q-0.71875 -2.296875 -2.109375 -3.328125q-1.390625 -1.046875 -3.5 -1.046875q-2.421875 0 -4.046875 1.15625q-1.625 1.15625 -2.28125 3.109375q-0.65625 1.953125 -0.65625 4.03125q0 2.6875 0.78125 4.6875q0.78125 1.984375 2.421875 2.984375q1.640625 0.984375 3.5625 0.984375q2.34375 0 3.953125 -1.34375q1.625 -1.359375 2.1875 -4.0zm4.914215 -0.25q0 -4.21875 2.359375 -6.25q1.953125 -1.6875 4.78125 -1.6875q3.125 0 5.109375 2.0625q2.0 2.046875 2.0 5.671875q0 2.921875 -0.875 4.609375q-0.875 1.6875 -2.5625 2.625q-1.6875 0.921875 -3.671875 0.921875q-3.203125 0 -5.171875 -2.046875q-1.96875 -2.046875 -1.96875 -5.90625zm2.65625 0q0 2.921875 1.265625 4.375q1.28125 1.453125 3.21875 1.453125q1.921875 0 3.1875 -1.453125q1.28125 -1.46875 1.28125 -4.453125q0 -2.828125 -1.28125 -4.28125q-1.28125 -1.453125 -3.1875 -1.453125q-1.9375 0 -3.21875 1.453125q-1.265625 1.4375 -1.265625 4.359375zm14.623413 7.609375l0 -15.203125l2.296875 0l0 2.125q0.71875 -1.109375 1.90625 -1.78125q1.1875 -0.6875 2.703125 -0.6875q1.703125 0 2.78125 0.703125q1.078125 0.6875 1.515625 1.953125q1.8125 -2.65625 4.703125 -2.65625q2.265625 0 3.484375 1.25q1.21875 1.25 1.21875 3.859375l0 10.4375l-2.5625 0l0 -9.578125q0 -1.546875 -0.265625 -2.21875q-0.25 -0.6875 -0.90625 -1.09375q-0.65625 -0.421875 -1.546875 -0.421875q-1.59375 0 -2.65625 1.0625q-1.0625 1.0625 -1.0625 3.421875l0 8.828125l-2.578125 0l0 -9.875q0 -1.71875 -0.640625 -2.578125q-0.625 -0.859375 -2.046875 -0.859375q-1.09375 0 -2.015625 0.578125q-0.921875 0.5625 -1.34375 1.671875q-0.40625 1.09375 -0.40625 3.171875l0 7.890625l-2.578125 0zm24.430603 5.828125l0 -21.03125l2.34375 0l0 1.96875q0.828125 -1.15625 1.875 -1.734375q1.046875 -0.578125 2.53125 -0.578125q1.953125 0 3.4375 1.0q1.5 1.0 2.25 2.828125q0.765625 1.828125 0.765625 4.0q0 2.328125 -0.84375 4.203125q-0.828125 1.875 -2.4375 2.875q-1.59375 0.984375 -3.359375 0.984375q-1.28125 0 -2.3125 -0.546875q-1.015625 -0.546875 -1.671875 -1.375l0 7.40625l-2.578125 0zm2.328125 -13.34375q0 2.9375 1.1875 4.34375q1.1875 1.390625 2.875 1.390625q1.71875 0 2.9375 -1.453125q1.234375 -1.453125 1.234375 -4.5q0 -2.90625 -1.203125 -4.34375q-1.1875 -1.453125 -2.84375 -1.453125q-1.65625 0 -2.921875 1.546875q-1.265625 1.53125 -1.265625 4.46875zm13.998413 -10.515625l0 -2.96875l2.578125 0l0 2.96875l-2.578125 0zm0 18.03125l0 -15.203125l2.578125 0l0 15.203125l-2.578125 0zm6.437622 0l0 -21.0l2.578125 0l0 21.0l-2.578125 0zm16.500122 -1.875q-1.4375 1.21875 -2.765625 1.71875q-1.3125 0.5 -2.828125 0.5q-2.515625 0 -3.859375 -1.21875q-1.34375 -1.234375 -1.34375 -3.140625q0 -1.109375 0.5 -2.03125q0.515625 -0.921875 1.328125 -1.484375q0.828125 -0.5625 1.859375 -0.84375q0.765625 -0.203125 2.296875 -0.390625q3.125 -0.375 4.59375 -0.890625q0.015625 -0.53125 0.015625 -0.671875q0 -1.578125 -0.734375 -2.21875q-0.984375 -0.875 -2.9375 -0.875q-1.8125 0 -2.6875 0.640625q-0.859375 0.640625 -1.265625 2.25l-2.53125 -0.34375q0.34375 -1.609375 1.125 -2.609375q0.796875 -1.0 2.28125 -1.53125q1.5 -0.53125 3.453125 -0.53125q1.953125 0 3.171875 0.453125q1.21875 0.453125 1.78125 1.15625q0.578125 0.6875 0.8125 1.75q0.125 0.65625 0.125 2.375l0 3.4375q0 3.59375 0.15625 4.546875q0.171875 0.953125 0.65625 1.828125l-2.6875 0q-0.40625 -0.796875 -0.515625 -1.875zm-0.21875 -5.75q-1.40625 0.5625 -4.203125 0.96875q-1.59375 0.21875 -2.25 0.515625q-0.65625 0.28125 -1.015625 0.84375q-0.359375 0.546875 -0.359375 1.21875q0 1.03125 0.78125 1.71875q0.78125 0.6875 2.28125 0.6875q1.484375 0 2.640625 -0.65625q1.171875 -0.65625 1.71875 -1.78125q0.40625 -0.875 0.40625 -2.578125l0 -0.9375zm12.232788 5.3125l0.375 2.28125q-1.09375 0.234375 -1.953125 0.234375q-1.40625 0 -2.1875 -0.4375q-0.765625 -0.453125 -1.078125 -1.171875q-0.3125 -0.734375 -0.3125 -3.046875l0 -8.75l-1.890625 0l0 -2.0l1.890625 0l0 -3.765625l2.5625 -1.546875l0 5.3125l2.59375 0l0 2.0l-2.59375 0l0 8.890625q0 1.109375 0.125 1.421875q0.140625 0.3125 0.453125 0.5q0.3125 0.1875 0.890625 0.1875q0.421875 0 1.125 -0.109375zm2.5389404 -15.71875l0 -2.96875l2.578125 0l0 2.96875l-2.578125 0zm0 18.03125l0 -15.203125l2.578125 0l0 15.203125l-2.578125 0zm5.531433 -7.609375q0 -4.21875 2.359375 -6.25q1.953125 -1.6875 4.78125 -1.6875q3.125 0 5.109375 2.0625q2.0 2.046875 2.0 5.671875q0 2.921875 -0.875 4.609375q-0.875 1.6875 -2.5625 2.625q-1.6875 0.921875 -3.671875 0.921875q-3.203125 0 -5.171875 -2.046875q-1.96875 -2.046875 -1.96875 -5.90625zm2.65625 0q0 2.921875 1.265625 4.375q1.28125 1.453125 3.21875 1.453125q1.921875 0 3.1875 -1.453125q1.28125 -1.46875 1.28125 -4.453125q0 -2.828125 -1.28125 -4.28125q-1.28125 -1.453125 -3.1875 -1.453125q-1.9375 0 -3.21875 1.453125q-1.265625 1.4375 -1.265625 4.359375zm14.623413 7.609375l0 -15.203125l2.3125 0l0 2.15625q1.671875 -2.5 4.84375 -2.5q1.375 0 2.53125 0.5q1.15625 0.484375 1.71875 1.296875q0.578125 0.796875 0.8125 1.890625q0.140625 0.71875 0.140625 2.515625l0 9.34375l-2.578125 0l0 -9.25q0 -1.578125 -0.3125 -2.359375q-0.296875 -0.78125 -1.0625 -1.234375q-0.765625 -0.46875 -1.796875 -0.46875q-1.640625 0 -2.84375 1.046875q-1.1875 1.03125 -1.1875 3.953125l0 8.3125l-2.578125 0z" fill-rule="nonzero"/><path fill="#ffffff" fill-opacity="0.9101" d="m232.66011 349.61258l0 0c0 -10.401215 8.431839 -18.833038 18.833038 -18.833038l457.01105 0c4.994873 0 9.785095 1.9841614 13.317017 5.5160522c3.5318604 3.5318909 5.5160522 8.322144 5.5160522 13.316986l0 127.782715c0 10.401215 -8.431824 18.833038 -18.833069 18.833038l-457.01105 0c-10.401199 0 -18.833038 -8.431824 -18.833038 -18.833038z" fill-rule="evenodd"/><path stroke="#000000" stroke-width="2.0" stroke-linejoin="round" stroke-linecap="butt" d="m232.66011 349.61258l0 0c0 -10.401215 8.431839 -18.833038 18.833038 -18.833038l457.01105 0c4.994873 0 9.785095 1.9841614 13.317017 5.5160522c3.5318604 3.5318909 5.5160522 8.322144 5.5160522 13.316986l0 127.782715c0 10.401215 -8.431824 18.833038 -18.833069 18.833038l-457.01105 0c-10.401199 0 -18.833038 -8.431824 -18.833038 -18.833038z" fill-rule="evenodd"/><path fill="#000000" fill-opacity="0.0" d="m254.24278 345.80316l441.57477 0l0 54.929108l-441.57477 0z" fill-rule="evenodd"/><path fill="#000000" d="m315.49725 382.96313l8.0625 -21.0l3.0 0l8.59375 21.0l-3.171875 0l-2.453125 -6.359375l-8.765625 0l-2.3125 6.359375l-2.953125 0zm6.0625 -8.625l7.109375 0l-2.1875 -5.8125q-1.0 -2.640625 -1.484375 -4.34375q-0.40625 2.015625 -1.140625 4.0l-2.296875 6.15625zm25.45227 8.625l0 -2.234375q-1.78125 2.578125 -4.828125 2.578125q-1.34375 0 -2.515625 -0.515625q-1.171875 -0.515625 -1.734375 -1.296875q-0.5625 -0.78125 -0.796875 -1.90625q-0.15625 -0.765625 -0.15625 -2.40625l0 -9.421875l2.578125 0l0 8.421875q0 2.03125 0.15625 2.734375q0.25 1.015625 1.03125 1.59375q0.796875 0.578125 1.953125 0.578125q1.15625 0 2.171875 -0.59375q1.015625 -0.59375 1.4375 -1.609375q0.421875 -1.03125 0.421875 -2.984375l0 -8.140625l2.578125 0l0 15.203125l-2.296875 0zm11.967163 -2.3125l0.375 2.28125q-1.09375 0.234375 -1.953125 0.234375q-1.40625 0 -2.1875 -0.4375q-0.765625 -0.453125 -1.078125 -1.171875q-0.3125 -0.734375 -0.3125 -3.046875l0 -8.75l-1.890625 0l0 -2.0l1.890625 0l0 -3.765625l2.5625 -1.546875l0 5.3125l2.59375 0l0 2.0l-2.59375 0l0 8.890625q0 1.109375 0.125 1.421875q0.140625 0.3125 0.453125 0.5q0.3125 0.1875 0.890625 0.1875q0.421875 0 1.125 -0.109375zm1.5545349 -5.296875q0 -4.21875 2.359375 -6.25q1.953125 -1.6875 4.78125 -1.6875q3.125 0 5.109375 2.0625q2.0 2.046875 2.0 5.671875q0 2.921875 -0.875 4.609375q-0.875 1.6875 -2.5625 2.625q-1.6875 0.921875 -3.671875 0.921875q-3.203125 0 -5.171875 -2.046875q-1.96875 -2.046875 -1.96875 -5.90625zm2.65625 0q0 2.921875 1.265625 4.375q1.28125 1.453125 3.21875 1.453125q1.921875 0 3.1875 -1.453125q1.28125 -1.46875 1.28125 -4.453125q0 -2.828125 -1.28125 -4.28125q-1.28125 -1.453125 -3.1875 -1.453125q-1.9375 0 -3.21875 1.453125q-1.265625 1.4375 -1.265625 4.359375zm14.623413 7.609375l0 -15.203125l2.296875 0l0 2.125q0.71875 -1.109375 1.90625 -1.78125q1.1875 -0.6875 2.703125 -0.6875q1.703125 0 2.78125 0.703125q1.078125 0.6875 1.515625 1.953125q1.8125 -2.65625 4.703125 -2.65625q2.265625 0 3.484375 1.25q1.21875 1.25 1.21875 3.859375l0 10.4375l-2.5625 0l0 -9.578125q0 -1.546875 -0.265625 -2.21875q-0.25 -0.6875 -0.90625 -1.09375q-0.65625 -0.421875 -1.546875 -0.421875q-1.59375 0 -2.65625 1.0625q-1.0625 1.0625 -1.0625 3.421875l0 8.828125l-2.578125 0l0 -9.875q0 -1.71875 -0.640625 -2.578125q-0.625 -0.859375 -2.046875 -0.859375q-1.09375 0 -2.015625 0.578125q-0.921875 0.5625 -1.34375 1.671875q-0.40625 1.09375 -0.40625 3.171875l0 7.890625l-2.578125 0zm34.352448 -1.875q-1.4375 1.21875 -2.765625 1.71875q-1.3125 0.5 -2.828125 0.5q-2.515625 0 -3.859375 -1.21875q-1.34375 -1.234375 -1.34375 -3.140625q0 -1.109375 0.5 -2.03125q0.515625 -0.921875 1.328125 -1.484375q0.828125 -0.5625 1.859375 -0.84375q0.765625 -0.203125 2.296875 -0.390625q3.125 -0.375 4.59375 -0.890625q0.015625 -0.53125 0.015625 -0.671875q0 -1.578125 -0.734375 -2.21875q-0.984375 -0.875 -2.9375 -0.875q-1.8125 0 -2.6875 0.640625q-0.859375 0.640625 -1.265625 2.25l-2.53125 -0.34375q0.34375 -1.609375 1.125 -2.609375q0.796875 -1.0 2.28125 -1.53125q1.5 -0.53125 3.453125 -0.53125q1.953125 0 3.171875 0.453125q1.21875 0.453125 1.78125 1.15625q0.578125 0.6875 0.8125 1.75q0.125 0.65625 0.125 2.375l0 3.4375q0 3.59375 0.15625 4.546875q0.171875 0.953125 0.65625 1.828125l-2.6875 0q-0.40625 -0.796875 -0.515625 -1.875zm-0.21875 -5.75q-1.40625 0.5625 -4.203125 0.96875q-1.59375 0.21875 -2.25 0.515625q-0.65625 0.28125 -1.015625 0.84375q-0.359375 0.546875 -0.359375 1.21875q0 1.03125 0.78125 1.71875q0.78125 0.6875 2.28125 0.6875q1.484375 0 2.640625 -0.65625q1.171875 -0.65625 1.71875 -1.78125q0.40625 -0.875 0.40625 -2.578125l0 -0.9375zm12.232788 5.3125l0.375 2.28125q-1.09375 0.234375 -1.953125 0.234375q-1.40625 0 -2.1875 -0.4375q-0.765625 -0.453125 -1.078125 -1.171875q-0.3125 -0.734375 -0.3125 -3.046875l0 -8.75l-1.890625 0l0 -2.0l1.890625 0l0 -3.765625l2.5625 -1.546875l0 5.3125l2.59375 0l0 2.0l-2.59375 0l0 8.890625q0 1.109375 0.125 1.421875q0.140625 0.3125 0.453125 0.5q0.3125 0.1875 0.890625 0.1875q0.421875 0 1.125 -0.109375zm2.53891 -15.71875l0 -2.96875l2.578125 0l0 2.96875l-2.578125 0zm0 18.03125l0 -15.203125l2.578125 0l0 15.203125l-2.578125 0zm16.422028 -5.578125l2.53125 0.34375q-0.40625 2.609375 -2.125 4.09375q-1.71875 1.484375 -4.203125 1.484375q-3.125 0 -5.03125 -2.03125q-1.890625 -2.046875 -1.890625 -5.859375q0 -2.46875 0.8125 -4.3125q0.828125 -1.84375 2.484375 -2.765625q1.671875 -0.921875 3.640625 -0.921875q2.46875 0 4.046875 1.25q1.578125 1.25 2.03125 3.5625l-2.515625 0.375q-0.359375 -1.53125 -1.265625 -2.296875q-0.90625 -0.78125 -2.203125 -0.78125q-1.9375 0 -3.15625 1.40625q-1.21875 1.390625 -1.21875 4.40625q0 3.078125 1.171875 4.46875q1.171875 1.375 3.0625 1.375q1.515625 0 2.53125 -0.921875q1.015625 -0.9375 1.296875 -2.875zm13.218628 5.578125l0 -21.0l7.234375 0q2.4375 0 3.734375 0.3125q1.796875 0.40625 3.078125 1.5q1.65625 1.40625 2.484375 3.59375q0.828125 2.171875 0.828125 4.984375q0 2.390625 -0.5625 4.234375q-0.5625 1.84375 -1.4375 3.0625q-0.875 1.203125 -1.921875 1.90625q-1.03125 0.6875 -2.5 1.046875q-1.453125 0.359375 -3.359375 0.359375l-7.578125 0zm2.78125 -2.484375l4.46875 0q2.078125 0 3.265625 -0.375q1.1875 -0.390625 1.890625 -1.09375q0.984375 -0.984375 1.53125 -2.65625q0.546875 -1.671875 0.546875 -4.046875q0 -3.296875 -1.078125 -5.0625q-1.078125 -1.765625 -2.625 -2.375q-1.125 -0.421875 -3.59375 -0.421875l-4.40625 0l0 16.03125zm18.08609 -15.546875l0 -2.96875l2.578125 0l0 2.96875l-2.578125 0zm0 18.03125l0 -15.203125l2.578125 0l0 15.203125l-2.578125 0zm7.1095276 0l0 -13.203125l-2.28125 0l0 -2.0l2.28125 0l0 -1.625q0 -1.53125 0.28125 -2.28125q0.359375 -1.0 1.296875 -1.625q0.9375 -0.625 2.640625 -0.625q1.078125 0 2.40625 0.265625l-0.390625 2.25q-0.8125 -0.140625 -1.515625 -0.140625q-1.171875 0 -1.671875 0.5q-0.484375 0.5 -0.484375 1.875l0 1.40625l2.96875 0l0 2.0l-2.96875 0l0 13.203125l-2.5625 0zm7.618347 0l0 -13.203125l-2.28125 0l0 -2.0l2.28125 0l0 -1.625q0 -1.53125 0.28125 -2.28125q0.359375 -1.0 1.296875 -1.625q0.9375 -0.625 2.640625 -0.625q1.078125 0 2.40625 0.265625l-0.390625 2.25q-0.8125 -0.140625 -1.515625 -0.140625q-1.171875 0 -1.671875 0.5q-0.484375 0.5 -0.484375 1.875l0 1.40625l2.96875 0l0 2.0l-2.96875 0l0 13.203125l-2.5625 0zm17.94516 -4.890625l2.6562805 0.328125q-0.6250305 2.328125 -2.3281555 3.625q-1.703125 1.28125 -4.359375 1.28125q-3.328125 0 -5.28125 -2.046875q-1.953125 -2.0625 -1.953125 -5.765625q0 -3.84375 1.96875 -5.953125q1.984375 -2.125 5.125 -2.125q3.0625 0 4.984375 2.078125q1.9375305 2.0625 1.9375305 5.84375q0 0.21875 -0.015625 0.671875l-11.3437805 0q0.140625 2.515625 1.421875 3.84375q1.28125 1.328125 3.171875 1.328125q1.421875 0 2.421875 -0.734375q1.0 -0.75 1.59375 -2.375zm-8.46875 -4.171875l8.5 0q-0.171875 -1.921875 -0.96875 -2.875q-1.234375 -1.5 -3.203125 -1.5q-1.765625 0 -2.984375 1.1875q-1.203125 1.1875 -1.34375 3.1875zm14.342194 9.0625l0 -15.203125l2.3125 0l0 2.296875q0.890625 -1.609375 1.640625 -2.125q0.75 -0.515625 1.65625 -0.515625q1.3125 0 2.65625 0.828125l-0.890625 2.390625q-0.953125 -0.5625 -1.890625 -0.5625q-0.84375 0 -1.515625 0.515625q-0.671875 0.5 -0.96875 1.40625q-0.421875 1.375 -0.421875 3.0l0 7.96875l-2.578125 0zm20.20398 -4.890625l2.65625 0.328125q-0.625 2.328125 -2.328125 3.625q-1.703125 1.28125 -4.359375 1.28125q-3.328125 0 -5.28125 -2.046875q-1.953125 -2.0625 -1.953125 -5.765625q0 -3.84375 1.96875 -5.953125q1.984375 -2.125 5.125 -2.125q3.0625 0 4.984375 2.078125q1.9375 2.0625 1.9375 5.84375q0 0.21875 -0.015625 0.671875l-11.34375 0q0.140625 2.515625 1.421875 3.84375q1.28125 1.328125 3.171875 1.328125q1.421875 0 2.421875 -0.734375q1.0 -0.75 1.59375 -2.375zm-8.46875 -4.171875l8.5 0q-0.171875 -1.921875 -0.96875 -2.875q-1.234375 -1.5 -3.203125 -1.5q-1.765625 0 -2.984375 1.1875q-1.203125 1.1875 -1.34375 3.1875zm14.373413 9.0625l0 -15.203125l2.3125 0l0 2.15625q1.671875 -2.5 4.84375 -2.5q1.375 0 2.53125 0.5q1.15625 0.484375 1.71875 1.296875q0.578125 0.796875 0.8125 1.890625q0.140625 0.71875 0.140625 2.515625l0 9.34375l-2.578125 0l0 -9.25q0 -1.578125 -0.3125 -2.359375q-0.296875 -0.78125 -1.0625 -1.234375q-0.765625 -0.46875 -1.796875 -0.46875q-1.640625 0 -2.84375 1.046875q-1.1875 1.03125 -1.1875 3.953125l0 8.3125l-2.578125 0zm21.935913 -2.3125l0.375 2.28125q-1.09375 0.234375 -1.953125 0.234375q-1.40625 0 -2.1875 -0.4375q-0.765625 -0.453125 -1.078125 -1.171875q-0.3125 -0.734375 -0.3125 -3.046875l0 -8.75l-1.890625 0l0 -2.0l1.890625 0l0 -3.765625l2.5625 -1.546875l0 5.3125l2.59375 0l0 2.0l-2.59375 0l0 8.890625q0 1.109375 0.125 1.421875q0.140625 0.3125 0.453125 0.5q0.3125 0.1875 0.890625 0.1875q0.421875 0 1.125 -0.109375zm2.5389404 -15.71875l0 -2.96875l2.578125 0l0 2.96875l-2.578125 0zm0 18.03125l0 -15.203125l2.578125 0l0 15.203125l-2.578125 0zm16.421997 -1.875q-1.4375 1.21875 -2.765625 1.71875q-1.3125 0.5 -2.828125 0.5q-2.515625 0 -3.859375 -1.21875q-1.34375 -1.234375 -1.34375 -3.140625q0 -1.109375 0.5 -2.03125q0.515625 -0.921875 1.328125 -1.484375q0.828125 -0.5625 1.859375 -0.84375q0.765625 -0.203125 2.296875 -0.390625q3.125 -0.375 4.59375 -0.890625q0.015625 -0.53125 0.015625 -0.671875q0 -1.578125 -0.734375 -2.21875q-0.984375 -0.875 -2.9375 -0.875q-1.8125 0 -2.6875 0.640625q-0.859375 0.640625 -1.265625 2.25l-2.53125 -0.34375q0.34375 -1.609375 1.125 -2.609375q0.796875 -1.0 2.28125 -1.53125q1.5 -0.53125 3.453125 -0.53125q1.953125 0 3.171875 0.453125q1.21875 0.453125 1.78125 1.15625q0.578125 0.6875 0.8125 1.75q0.125 0.65625 0.125 2.375l0 3.4375q0 3.59375 0.15625 4.546875q0.171875 0.953125 0.65625 1.828125l-2.6875 0q-0.40625 -0.796875 -0.515625 -1.875zm-0.21875 -5.75q-1.40625 0.5625 -4.203125 0.96875q-1.59375 0.21875 -2.25 0.515625q-0.65625 0.28125 -1.015625 0.84375q-0.359375 0.546875 -0.359375 1.21875q0 1.03125 0.78125 1.71875q0.78125 0.6875 2.28125 0.6875q1.484375 0 2.640625 -0.65625q1.171875 -0.65625 1.71875 -1.78125q0.40625 -0.875 0.40625 -2.578125l0 -0.9375zm12.232788 5.3125l0.375 2.28125q-1.09375 0.234375 -1.953125 0.234375q-1.40625 0 -2.1875 -0.4375q-0.765625 -0.453125 -1.078125 -1.171875q-0.3125 -0.734375 -0.3125 -3.046875l0 -8.75l-1.890625 0l0 -2.0l1.890625 0l0 -3.765625l2.5625 -1.546875l0 5.3125l2.59375 0l0 2.0l-2.59375 0l0 8.890625q0 1.109375 0.125 1.421875q0.140625 0.3125 0.453125 0.5q0.3125 0.1875 0.890625 0.1875q0.421875 0 1.125 -0.109375zm2.5389404 -15.71875l0 -2.96875l2.578125 0l0 2.96875l-2.578125 0zm0 18.03125l0 -15.203125l2.578125 0l0 15.203125l-2.578125 0zm5.531433 -7.609375q0 -4.21875 2.359375 -6.25q1.953125 -1.6875 4.78125 -1.6875q3.125 0 5.109375 2.0625q2.0 2.046875 2.0 5.671875q0 2.921875 -0.875 4.609375q-0.875 1.6875 -2.5625 2.625q-1.6875 0.921875 -3.671875 0.921875q-3.203125 0 -5.171875 -2.046875q-1.96875 -2.046875 -1.96875 -5.90625zm2.65625 0q0 2.921875 1.265625 4.375q1.28125 1.453125 3.21875 1.453125q1.921875 0 3.1875 -1.453125q1.28125 -1.46875 1.28125 -4.453125q0 -2.828125 -1.28125 -4.28125q-1.28125 -1.453125 -3.1875 -1.453125q-1.9375 0 -3.21875 1.453125q-1.265625 1.4375 -1.265625 4.359375zm14.623413 7.609375l0 -15.203125l2.3125 0l0 2.15625q1.671875 -2.5 4.84375 -2.5q1.375 0 2.53125 0.5q1.15625 0.484375 1.71875 1.296875q0.578125 0.796875 0.8125 1.890625q0.140625 0.71875 0.140625 2.515625l0 9.34375l-2.578125 0l0 -9.25q0 -1.578125 -0.3125 -2.359375q-0.296875 -0.78125 -1.0625 -1.234375q-0.765625 -0.46875 -1.796875 -0.46875q-1.640625 0 -2.84375 1.046875q-1.1875 1.03125 -1.1875 3.953125l0 8.3125l-2.578125 0z" fill-rule="nonzero"/><path fill="#ffffff" fill-opacity="0.9101" d="m275.77823 416.99942l0 0c0 -4.0729675 3.3017883 -7.374756 7.3747253 -7.374756l393.69147 0c1.9558716 0 3.831665 0.77697754 5.2147217 2.1600342c1.3830566 1.3830261 2.1600342 3.2588196 2.1600342 5.2147217l0 50.037903c0 4.0729675 -3.3018188 7.374756 -7.374756 7.374756l-393.69147 0c-4.072937 0 -7.3747253 -3.3017883 -7.3747253 -7.374756z" fill-rule="evenodd"/><path stroke="#000000" stroke-width="2.0" stroke-linejoin="round" stroke-linecap="butt" d="m275.77823 416.99942l0 0c0 -4.0729675 3.3017883 -7.374756 7.3747253 -7.374756l393.69147 0c1.9558716 0 3.831665 0.77697754 5.2147217 2.1600342c1.3830566 1.3830261 2.1600342 3.2588196 2.1600342 5.2147217l0 50.037903c0 4.0729675 -3.3018188 7.374756 -7.374756 7.374756l-393.69147 0c-4.072937 0 -7.3747253 -3.3017883 -7.3747253 -7.374756z" fill-rule="evenodd"/><path fill="#000000" fill-opacity="0.0" d="m259.21127 416.1601l441.5748 0l0 51.716553l-441.5748 0z" fill-rule="evenodd"/><path fill="#000000" d="m394.6214 450.7601l0 -19.078125l6.5625 0q2.234375 0 3.40625 0.265625q1.640625 0.375 2.796875 1.375q1.5 1.265625 2.25 3.25q0.75 1.984375 0.75 4.546875q0 2.171875 -0.515625 3.859375q-0.5 1.671875 -1.296875 2.78125q-0.78125 1.09375 -1.734375 1.71875q-0.9375 0.625 -2.28125 0.953125q-1.328125 0.328125 -3.0625 0.328125l-6.875 0zm2.515625 -2.25l4.078125 0q1.890625 0 2.953125 -0.34375q1.078125 -0.359375 1.71875 -1.0q0.890625 -0.890625 1.390625 -2.40625q0.515625 -1.515625 0.515625 -3.6875q0 -2.984375 -0.984375 -4.59375q-0.984375 -1.609375 -2.390625 -2.15625q-1.015625 -0.390625 -3.265625 -0.390625l-4.015625 0l0 14.578125zm25.8909 -2.203125l2.421875 0.296875q-0.578125 2.125 -2.125 3.296875q-1.546875 1.171875 -3.953125 1.171875q-3.03125 0 -4.8125 -1.859375q-1.78125 -1.875 -1.78125 -5.25q0 -3.484375 1.796875 -5.40625q1.796875 -1.9375 4.671875 -1.9375q2.765625 0 4.515625 1.890625q1.765625 1.890625 1.765625 5.3125q0 0.203125 -0.015625 0.625l-10.3125 0q0.140625 2.28125 1.296875 3.5q1.15625 1.203125 2.890625 1.203125q1.28125 0 2.1875 -0.671875q0.921875 -0.6875 1.453125 -2.171875zm-7.6875 -3.78125l7.71875 0q-0.15625 -1.75 -0.890625 -2.625q-1.125 -1.34375 -2.90625 -1.34375q-1.609375 0 -2.71875 1.078125q-1.09375 1.078125 -1.203125 2.890625zm22.512451 3.78125l2.421875 0.296875q-0.578125 2.125 -2.125 3.296875q-1.546875 1.171875 -3.953125 1.171875q-3.03125 0 -4.8125 -1.859375q-1.78125 -1.875 -1.78125 -5.25q0 -3.484375 1.796875 -5.40625q1.796875 -1.9375 4.671875 -1.9375q2.765625 0 4.515625 1.890625q1.765625 1.890625 1.765625 5.3125q0 0.203125 -0.015625 0.625l-10.3125 0q0.140625 2.28125 1.296875 3.5q1.15625 1.203125 2.890625 1.203125q1.28125 0 2.1875 -0.671875q0.921875 -0.6875 1.453125 -2.171875zm-7.6875 -3.78125l7.71875 0q-0.15625 -1.75 -0.890625 -2.625q-1.125 -1.34375 -2.90625 -1.34375q-1.609375 0 -2.71875 1.078125q-1.09375 1.078125 -1.203125 2.890625zm13.043671 13.53125l0 -19.125l2.140625 0l0 1.796875q0.75 -1.046875 1.703125 -1.578125q0.953125 -0.53125 2.3125 -0.53125q1.765625 0 3.109375 0.921875q1.359375 0.90625 2.046875 2.5625q0.6875 1.65625 0.6875 3.640625q0 2.125 -0.765625 3.828125q-0.75 1.6875 -2.203125 2.59375q-1.453125 0.90625 -3.046875 0.90625q-1.171875 0 -2.109375 -0.484375q-0.921875 -0.5 -1.53125 -1.265625l0 6.734375l-2.34375 0zm2.125 -12.125q0 2.65625 1.078125 3.9375q1.09375 1.28125 2.625 1.28125q1.5625 0 2.671875 -1.3125q1.109375 -1.328125 1.109375 -4.109375q0 -2.640625 -1.09375 -3.953125q-1.078125 -1.3125 -2.59375 -1.3125q-1.484375 0 -2.640625 1.40625q-1.15625 1.390625 -1.15625 4.0625zm20.309021 6.828125l0 -19.078125l2.53125 0l0 16.828125l9.390625 0l0 2.25l-11.921875 0zm24.090576 -4.453125l2.421875 0.296875q-0.578125 2.125 -2.125 3.296875q-1.546875 1.171875 -3.953125 1.171875q-3.03125 0 -4.8125 -1.859375q-1.78125 -1.875 -1.78125 -5.25q0 -3.484375 1.796875 -5.40625q1.796875 -1.9375 4.671875 -1.9375q2.765625 0 4.515625 1.890625q1.765625 1.890625 1.765625 5.3125q0 0.203125 -0.015625 0.625l-10.3125 0q0.140625 2.28125 1.296875 3.5q1.15625 1.203125 2.890625 1.203125q1.28125 0 2.1875 -0.671875q0.921875 -0.6875 1.453125 -2.171875zm-7.6875 -3.78125l7.71875 0q-0.15625 -1.75 -0.890625 -2.625q-1.125 -1.34375 -2.90625 -1.34375q-1.609375 0 -2.71875 1.078125q-1.09375 1.078125 -1.203125 2.890625zm22.07492 6.53125q-1.3125 1.109375 -2.515625 1.5625q-1.203125 0.453125 -2.578125 0.453125q-2.28125 0 -3.5 -1.109375q-1.21875 -1.109375 -1.21875 -2.84375q0 -1.015625 0.453125 -1.859375q0.46875 -0.84375 1.21875 -1.34375q0.75 -0.515625 1.6875 -0.765625q0.6875 -0.1875 2.078125 -0.359375q2.828125 -0.328125 4.171875 -0.796875q0.015625 -0.484375 0.015625 -0.625q0 -1.421875 -0.65625 -2.015625q-0.90625 -0.796875 -2.671875 -0.796875q-1.65625 0 -2.453125 0.59375q-0.78125 0.578125 -1.15625 2.046875l-2.296875 -0.3125q0.3125 -1.46875 1.03125 -2.375q0.71875 -0.90625 2.0625 -1.390625q1.359375 -0.5 3.140625 -0.5q1.78125 0 2.875 0.421875q1.109375 0.421875 1.625 1.046875q0.53125 0.625 0.734375 1.59375q0.125 0.59375 0.125 2.15625l0 3.125q0 3.265625 0.140625 4.140625q0.15625 0.859375 0.59375 1.65625l-2.4375 0q-0.375 -0.734375 -0.46875 -1.703125zm-0.203125 -5.234375q-1.265625 0.515625 -3.828125 0.890625q-1.4375 0.203125 -2.046875 0.46875q-0.59375 0.25 -0.921875 0.75q-0.3125 0.5 -0.3125 1.125q0 0.9375 0.703125 1.5625q0.703125 0.625 2.078125 0.625q1.34375 0 2.390625 -0.59375q1.0625 -0.59375 1.5625 -1.625q0.375 -0.796875 0.375 -2.34375l0 -0.859375zm5.981201 6.9375l0 -13.828125l2.1093445 0l0 2.09375q0.796875 -1.46875 1.484375 -1.9375q0.6875 -0.46875 1.5 -0.46875q1.187561 0 2.406311 0.765625l-0.796875 2.171875q-0.859375 -0.515625 -1.718811 -0.515625q-0.765625 0 -1.390625 0.46875q-0.609375 0.453125 -0.859375 1.28125q-0.390625 1.25 -0.390625 2.734375l0 7.234375l-2.3437195 0zm8.8923645 0l0 -13.828125l2.109375 0l0 1.96875q1.53125 -2.28125 4.40625 -2.28125q1.25 0 2.296875 0.453125q1.046875 0.453125 1.5625 1.1875q0.53125 0.71875 0.734375 1.71875q0.125 0.65625 0.125 2.28125l0 8.5l-2.34375 0l0 -8.40625q0 -1.4375 -0.28125 -2.140625q-0.265625 -0.71875 -0.96875 -1.140625q-0.6875 -0.421875 -1.625 -0.421875q-1.484375 0 -2.578125 0.953125q-1.09375 0.953125 -1.09375 3.609375l0 7.546875l-2.34375 0zm14.840576 -16.390625l0 -2.6875l2.34375 0l0 2.6875l-2.34375 0zm0 16.390625l0 -13.828125l2.34375 0l0 13.828125l-2.34375 0zm5.906555 0l0 -13.828125l2.109375 0l0 1.96875q1.53125 -2.28125 4.40625 -2.28125q1.25 0 2.296875 0.453125q1.046875 0.453125 1.5625 1.1875q0.53125 0.71875 0.734375 1.71875q0.125 0.65625 0.125 2.28125l0 8.5l-2.34375 0l0 -8.40625q0 -1.4375 -0.28125 -2.140625q-0.265625 -0.71875 -0.96875 -1.140625q-0.6875 -0.421875 -1.625 -0.421875q-1.484375 0 -2.578125 0.953125q-1.09375 0.953125 -1.09375 3.609375l0 7.546875l-2.34375 0zm14.403015 1.140625l2.28125 0.34375q0.140625 1.046875 0.796875 1.53125q0.859375 0.65625 2.375 0.65625q1.625 0 2.5 -0.65625q0.890625 -0.640625 1.203125 -1.8125q0.1875 -0.71875 0.171875 -3.015625q-1.53125 1.8125 -3.828125 1.8125q-2.84375 0 -4.40625 -2.046875q-1.5625 -2.0625 -1.5625 -4.9375q0 -1.984375 0.71875 -3.65625q0.71875 -1.671875 2.078125 -2.578125q1.359375 -0.921875 3.1875 -0.921875q2.453125 0 4.03125 1.984375l0 -1.671875l2.171875 0l0 11.953125q0 3.234375 -0.65625 4.578125q-0.65625 1.34375 -2.09375 2.125q-1.421875 0.78125 -3.5 0.78125q-2.46875 0 -4.0 -1.109375q-1.515625 -1.109375 -1.46875 -3.359375zm1.9375 -8.296875q0 2.71875 1.078125 3.96875q1.078125 1.25 2.703125 1.25q1.625 0 2.71875 -1.234375q1.09375 -1.25 1.09375 -3.90625q0 -2.546875 -1.125 -3.828125q-1.125 -1.296875 -2.71875 -1.296875q-1.5625 0 -2.65625 1.28125q-1.09375 1.265625 -1.09375 3.765625z" fill-rule="nonzero"/><path fill="#ffffff" fill-opacity="0.9101" d="m232.66011 146.81569l0 0c0 -4.0729523 3.3017883 -7.3747406 7.3747406 -7.3747406l479.92767 0c1.9558716 0 3.831726 0.77697754 5.2147217 2.1600037c1.3830566 1.3830414 2.1600342 3.2588348 2.1600342 5.214737l0 50.037903c0 4.0729675 -3.3018188 7.374756 -7.374756 7.374756l-479.92767 0c-4.0729523 0 -7.3747406 -3.3017883 -7.3747406 -7.374756z" fill-rule="evenodd"/><path stroke="#000000" stroke-width="2.0" stroke-linejoin="round" stroke-linecap="butt" d="m232.66011 146.81569l0 0c0 -4.0729523 3.3017883 -7.3747406 7.3747406 -7.3747406l479.92767 0c1.9558716 0 3.831726 0.77697754 5.2147217 2.1600037c1.3830566 1.3830414 2.1600342 3.2588348 2.1600342 5.214737l0 50.037903c0 4.0729675 -3.3018188 7.374756 -7.374756 7.374756l-479.92767 0c-4.0729523 0 -7.3747406 -3.3017883 -7.3747406 -7.374756z" fill-rule="evenodd"/><path fill="#000000" fill-opacity="0.0" d="m259.21127 144.37009l441.5748 0l0 54.929123l-441.5748 0z" fill-rule="evenodd"/><path fill="#000000" d="m319.38452 181.53008l8.0625 -21.0l3.0 0l8.59375 21.0l-3.171875 0l-2.453125 -6.359375l-8.765625 0l-2.3125 6.359375l-2.953125 0zm6.0625 -8.625l7.109375 0l-2.1875 -5.8125q-1.0 -2.640625 -1.484375 -4.34375q-0.40625 2.015625 -1.140625 4.0l-2.296875 6.15625zm25.45227 8.625l0 -2.234375q-1.78125 2.578125 -4.828125 2.578125q-1.34375 0 -2.515625 -0.515625q-1.171875 -0.515625 -1.734375 -1.296875q-0.5625 -0.78125 -0.796875 -1.90625q-0.15625 -0.765625 -0.15625 -2.40625l0 -9.421875l2.578125 0l0 8.421875q0 2.03125 0.15625 2.734375q0.25 1.015625 1.03125 1.59375q0.796875 0.578125 1.953125 0.578125q1.15625 0 2.171875 -0.59375q1.015625 -0.59375 1.4375 -1.609375q0.421875 -1.03125 0.421875 -2.984375l0 -8.140625l2.578125 0l0 15.203125l-2.296875 0zm11.967163 -2.3125l0.375 2.28125q-1.09375 0.234375 -1.953125 0.234375q-1.40625 0 -2.1875 -0.4375q-0.765625 -0.453125 -1.078125 -1.171875q-0.3125 -0.734375 -0.3125 -3.046875l0 -8.75l-1.890625 0l0 -2.0l1.890625 0l0 -3.765625l2.5625 -1.546875l0 5.3125l2.59375 0l0 2.0l-2.59375 0l0 8.890625q0 1.109375 0.125 1.421875q0.140625 0.3125 0.453125 0.5q0.3125 0.1875 0.890625 0.1875q0.421875 0 1.125 -0.109375zm1.5545349 -5.296875q0 -4.21875 2.359375 -6.25q1.953125 -1.6875 4.78125 -1.6875q3.125 0 5.109375 2.0625q2.0 2.046875 2.0 5.671875q0 2.921875 -0.875 4.609375q-0.875 1.6875 -2.5625 2.625q-1.6875 0.921875 -3.671875 0.921875q-3.203125 0 -5.171875 -2.046875q-1.96875 -2.046875 -1.96875 -5.90625zm2.65625 0q0 2.921875 1.265625 4.375q1.28125 1.453125 3.21875 1.453125q1.921875 0 3.1875 -1.453125q1.28125 -1.46875 1.28125 -4.453125q0 -2.828125 -1.28125 -4.28125q-1.28125 -1.453125 -3.1875 -1.453125q-1.9375 0 -3.21875 1.453125q-1.265625 1.4375 -1.265625 4.359375zm14.623413 7.609375l0 -15.203125l2.296875 0l0 2.125q0.71875 -1.109375 1.90625 -1.78125q1.1875 -0.6875 2.703125 -0.6875q1.703125 0 2.78125 0.703125q1.078125 0.6875 1.515625 1.953125q1.8125 -2.65625 4.703125 -2.65625q2.265625 0 3.484375 1.25q1.21875 1.25 1.21875 3.859375l0 10.4375l-2.5625 0l0 -9.578125q0 -1.546875 -0.265625 -2.21875q-0.25 -0.6875 -0.90625 -1.09375q-0.65625 -0.421875 -1.546875 -0.421875q-1.59375 0 -2.65625 1.0625q-1.0625 1.0625 -1.0625 3.421875l0 8.828125l-2.578125 0l0 -9.875q0 -1.71875 -0.640625 -2.578125q-0.625 -0.859375 -2.046875 -0.859375q-1.09375 0 -2.015625 0.578125q-0.921875 0.5625 -1.34375 1.671875q-0.40625 1.09375 -0.40625 3.171875l0 7.890625l-2.578125 0zm34.352448 -1.875q-1.4375 1.21875 -2.765625 1.71875q-1.3125 0.5 -2.828125 0.5q-2.515625 0 -3.859375 -1.21875q-1.34375 -1.234375 -1.34375 -3.140625q0 -1.109375 0.5 -2.03125q0.515625 -0.921875 1.328125 -1.484375q0.828125 -0.5625 1.859375 -0.84375q0.765625 -0.203125 2.296875 -0.390625q3.125 -0.375 4.59375 -0.890625q0.015625 -0.53125 0.015625 -0.671875q0 -1.578125 -0.734375 -2.21875q-0.984375 -0.875 -2.9375 -0.875q-1.8125 0 -2.6875 0.640625q-0.859375 0.640625 -1.265625 2.25l-2.53125 -0.34375q0.34375 -1.609375 1.125 -2.609375q0.796875 -1.0 2.28125 -1.53125q1.5 -0.53125 3.453125 -0.53125q1.953125 0 3.171875 0.453125q1.21875 0.453125 1.78125 1.15625q0.578125 0.6875 0.8125 1.75q0.125 0.65625 0.125 2.375l0 3.4375q0 3.59375 0.15625 4.546875q0.171875 0.953125 0.65625 1.828125l-2.6875 0q-0.40625 -0.796875 -0.515625 -1.875zm-0.21875 -5.75q-1.40625 0.5625 -4.203125 0.96875q-1.59375 0.21875 -2.25 0.515625q-0.65625 0.28125 -1.015625 0.84375q-0.359375 0.546875 -0.359375 1.21875q0 1.03125 0.78125 1.71875q0.78125 0.6875 2.28125 0.6875q1.484375 0 2.640625 -0.65625q1.171875 -0.65625 1.71875 -1.78125q0.40625 -0.875 0.40625 -2.578125l0 -0.9375zm12.232788 5.3125l0.375 2.28125q-1.09375 0.234375 -1.953125 0.234375q-1.40625 0 -2.1875 -0.4375q-0.765625 -0.453125 -1.078125 -1.171875q-0.3125 -0.734375 -0.3125 -3.046875l0 -8.75l-1.890625 0l0 -2.0l1.890625 0l0 -3.765625l2.5625 -1.546875l0 5.3125l2.59375 0l0 2.0l-2.59375 0l0 8.890625q0 1.109375 0.125 1.421875q0.140625 0.3125 0.453125 0.5q0.3125 0.1875 0.890625 0.1875q0.421875 0 1.125 -0.109375zm2.53891 -15.71875l0 -2.96875l2.578125 0l0 2.96875l-2.578125 0zm0 18.03125l0 -15.203125l2.578125 0l0 15.203125l-2.578125 0zm16.422028 -5.578125l2.53125 0.34375q-0.40625 2.609375 -2.125 4.09375q-1.71875 1.484375 -4.203125 1.484375q-3.125 0 -5.03125 -2.03125q-1.890625 -2.046875 -1.890625 -5.859375q0 -2.46875 0.8125 -4.3125q0.828125 -1.84375 2.484375 -2.765625q1.671875 -0.921875 3.640625 -0.921875q2.46875 0 4.046875 1.25q1.578125 1.25 2.03125 3.5625l-2.515625 0.375q-0.359375 -1.53125 -1.265625 -2.296875q-0.90625 -0.78125 -2.203125 -0.78125q-1.9375 0 -3.15625 1.40625q-1.21875 1.390625 -1.21875 4.40625q0 3.078125 1.171875 4.46875q1.171875 1.375 3.0625 1.375q1.515625 0 2.53125 -0.921875q1.015625 -0.9375 1.296875 -2.875zm13.218628 5.578125l0 -21.0l7.921875 0q2.078125 0 3.1875 0.203125q1.546875 0.265625 2.59375 0.984375q1.046875 0.71875 1.671875 2.03125q0.640625 1.296875 0.640625 2.859375q0 2.671875 -1.703125 4.53125q-1.703125 1.859375 -6.15625 1.859375l-5.375 0l0 8.53125l-2.78125 0zm2.78125 -11.015625l5.421875 0q2.6875 0 3.8125 -1.0q1.140625 -1.0 1.140625 -2.8125q0 -1.328125 -0.671875 -2.265625q-0.65625 -0.9375 -1.75 -1.234375q-0.703125 -0.1875 -2.59375 -0.1875l-5.359375 0l0 7.5zm26.374115 9.140625q-1.4375 1.21875 -2.765625 1.71875q-1.3125 0.5 -2.828125 0.5q-2.515625 0 -3.859375 -1.21875q-1.34375 -1.234375 -1.34375 -3.140625q0 -1.109375 0.5 -2.03125q0.515625 -0.921875 1.328125 -1.484375q0.828125 -0.5625 1.859375 -0.84375q0.765625 -0.203125 2.296875 -0.390625q3.125 -0.375 4.59375 -0.890625q0.015625 -0.53125 0.015625 -0.671875q0 -1.578125 -0.734375 -2.21875q-0.984375 -0.875 -2.9375 -0.875q-1.8125 0 -2.6875 0.640625q-0.859375 0.640625 -1.265625 2.25l-2.53125 -0.34375q0.34375 -1.609375 1.125 -2.609375q0.796875 -1.0 2.28125 -1.53125q1.5 -0.53125 3.453125 -0.53125q1.953125 0 3.171875 0.453125q1.21875 0.453125 1.78125 1.15625q0.578125 0.6875 0.8125 1.75q0.125 0.65625 0.125 2.375l0 3.4375q0 3.59375 0.15625 4.546875q0.171875 0.953125 0.65625 1.828125l-2.6875 0q-0.40625 -0.796875 -0.515625 -1.875zm-0.21875 -5.75q-1.40625 0.5625 -4.203125 0.96875q-1.59375 0.21875 -2.25 0.515625q-0.65625 0.28125 -1.015625 0.84375q-0.359375 0.546875 -0.359375 1.21875q0 1.03125 0.78125 1.71875q0.78125 0.6875 2.28125 0.6875q1.484375 0 2.640625 -0.65625q1.171875 -0.65625 1.71875 -1.78125q0.40625 -0.875 0.40625 -2.578125l0 -0.9375zm6.576538 7.625l0 -15.203125l2.3125 0l0 2.296875q0.890625 -1.609375 1.640625 -2.125q0.75 -0.515625 1.65625 -0.515625q1.3125 0 2.65625 0.828125l-0.890625 2.390625q-0.953125 -0.5625 -1.890625 -0.5625q-0.84375 0 -1.515625 0.515625q-0.671875 0.5 -0.96875 1.40625q-0.421875 1.375 -0.421875 3.0l0 7.96875l-2.578125 0zm19.719635 -1.875q-1.4375 1.21875 -2.765625 1.71875q-1.3125 0.5 -2.828125 0.5q-2.515625 0 -3.859375 -1.21875q-1.34375 -1.234375 -1.34375 -3.140625q0 -1.109375 0.5 -2.03125q0.515625 -0.921875 1.328125 -1.484375q0.828125 -0.5625 1.859375 -0.84375q0.765625 -0.203125 2.296875 -0.390625q3.125 -0.375 4.59375 -0.890625q0.015625 -0.53125 0.015625 -0.671875q0 -1.578125 -0.734375 -2.21875q-0.984375 -0.875 -2.9375 -0.875q-1.8125 0 -2.6875 0.640625q-0.859375 0.640625 -1.265625 2.25l-2.53125 -0.34375q0.34375 -1.609375 1.125 -2.609375q0.796875 -1.0 2.28125 -1.53125q1.5 -0.53125 3.453125 -0.53125q1.953125 0 3.171875 0.453125q1.21875 0.453125 1.78125 1.15625q0.578125 0.6875 0.8125 1.75q0.125 0.65625 0.125 2.375l0 3.4375q0 3.59375 0.15625 4.546875q0.171875 0.953125 0.65625 1.828125l-2.6875 0q-0.40625 -0.796875 -0.515625 -1.875zm-0.21875 -5.75q-1.40625 0.5625 -4.203125 0.96875q-1.59375 0.21875 -2.25 0.515625q-0.65625 0.28125 -1.015625 0.84375q-0.359375 0.546875 -0.359375 1.21875q0 1.03125 0.78125 1.71875q0.78125 0.6875 2.28125 0.6875q1.484375 0 2.640625 -0.65625q1.171875 -0.65625 1.71875 -1.78125q0.40625 -0.875 0.40625 -2.578125l0 -0.9375zm6.545288 7.625l0 -21.0l2.578125 0l0 21.0l-2.578125 0zm6.515808 0l0 -21.0l2.578125 0l0 21.0l-2.578125 0zm16.984497 -4.890625l2.65625 0.328125q-0.625 2.328125 -2.328125 3.625q-1.703125 1.28125 -4.359375 1.28125q-3.328125 0 -5.28125 -2.046875q-1.953125 -2.0625 -1.953125 -5.765625q0 -3.84375 1.96875 -5.953125q1.984375 -2.125 5.125 -2.125q3.0625 0 4.984375 2.078125q1.9375 2.0625 1.9375 5.84375q0 0.21875 -0.015625 0.671875l-11.34375 0q0.140625 2.515625 1.421875 3.84375q1.28125 1.328125 3.171875 1.328125q1.421875 0 2.421875 -0.734375q1.0 -0.75 1.59375 -2.375zm-8.46875 -4.171875l8.5 0q-0.171875 -1.921875 -0.96875 -2.875q-1.234375 -1.5 -3.203125 -1.5q-1.765625 0 -2.984375 1.1875q-1.203125 1.1875 -1.34375 3.1875zm14.310913 9.0625l0 -21.0l2.578125 0l0 21.0l-2.578125 0zm6.593933 -18.03125l0 -2.96875l2.578125 0l0 2.96875l-2.578125 0zm0 18.03125l0 -15.203125l2.578125 0l0 15.203125l-2.578125 0zm5.140747 0l0 -2.09375l9.671875 -11.109375q-1.640625 0.078125 -2.90625 0.078125l-6.203125 0l0 -2.078125l12.4375 0l0 1.703125l-8.234375 9.640625l-1.59375 1.765625q1.734375 -0.125 3.25 -0.125l7.03125 0l0 2.21875l-13.453125 0zm25.945312 -1.875q-1.4375 1.21875 -2.765625 1.71875q-1.3125 0.5 -2.828125 0.5q-2.515625 0 -3.859375 -1.21875q-1.34375 -1.234375 -1.34375 -3.140625q0 -1.109375 0.5 -2.03125q0.515625 -0.921875 1.328125 -1.484375q0.828125 -0.5625 1.859375 -0.84375q0.765625 -0.203125 2.296875 -0.390625q3.125 -0.375 4.59375 -0.890625q0.015625 -0.53125 0.015625 -0.671875q0 -1.578125 -0.734375 -2.21875q-0.984375 -0.875 -2.9375 -0.875q-1.8125 0 -2.6875 0.640625q-0.859375 0.640625 -1.265625 2.25l-2.53125 -0.34375q0.34375 -1.609375 1.125 -2.609375q0.796875 -1.0 2.28125 -1.53125q1.5 -0.53125 3.453125 -0.53125q1.953125 0 3.171875 0.453125q1.21875 0.453125 1.78125 1.15625q0.578125 0.6875 0.8125 1.75q0.125 0.65625 0.125 2.375l0 3.4375q0 3.59375 0.15625 4.546875q0.171875 0.953125 0.65625 1.828125l-2.6875 0q-0.40625 -0.796875 -0.515625 -1.875zm-0.21875 -5.75q-1.40625 0.5625 -4.203125 0.96875q-1.59375 0.21875 -2.25 0.515625q-0.65625 0.28125 -1.015625 0.84375q-0.359375 0.546875 -0.359375 1.21875q0 1.03125 0.78125 1.71875q0.78125 0.6875 2.28125 0.6875q1.484375 0 2.640625 -0.65625q1.171875 -0.65625 1.71875 -1.78125q0.40625 -0.875 0.40625 -2.578125l0 -0.9375zm12.232788 5.3125l0.375 2.28125q-1.09375 0.234375 -1.953125 0.234375q-1.40625 0 -2.1875 -0.4375q-0.765625 -0.453125 -1.078125 -1.171875q-0.3125 -0.734375 -0.3125 -3.046875l0 -8.75l-1.890625 0l0 -2.0l1.890625 0l0 -3.765625l2.5625 -1.546875l0 5.3125l2.59375 0l0 2.0l-2.59375 0l0 8.890625q0 1.109375 0.125 1.421875q0.140625 0.3125 0.453125 0.5q0.3125 0.1875 0.890625 0.1875q0.421875 0 1.125 -0.109375zm2.5389404 -15.71875l0 -2.96875l2.578125 0l0 2.96875l-2.578125 0zm0 18.03125l0 -15.203125l2.578125 0l0 15.203125l-2.578125 0zm5.531433 -7.609375q0 -4.21875 2.359375 -6.25q1.953125 -1.6875 4.78125 -1.6875q3.125 0 5.109375 2.0625q2.0 2.046875 2.0 5.671875q0 2.921875 -0.875 4.609375q-0.875 1.6875 -2.5625 2.625q-1.6875 0.921875 -3.671875 0.921875q-3.203125 0 -5.171875 -2.046875q-1.96875 -2.046875 -1.96875 -5.90625zm2.65625 0q0 2.921875 1.265625 4.375q1.28125 1.453125 3.21875 1.453125q1.921875 0 3.1875 -1.453125q1.28125 -1.46875 1.28125 -4.453125q0 -2.828125 -1.28125 -4.28125q-1.28125 -1.453125 -3.1875 -1.453125q-1.9375 0 -3.21875 1.453125q-1.265625 1.4375 -1.265625 4.359375zm14.623413 7.609375l0 -15.203125l2.3125 0l0 2.15625q1.671875 -2.5 4.84375 -2.5q1.375 0 2.53125 0.5q1.15625 0.484375 1.71875 1.296875q0.578125 0.796875 0.8125 1.890625q0.140625 0.71875 0.140625 2.515625l0 9.34375l-2.578125 0l0 -9.25q0 -1.578125 -0.3125 -2.359375q-0.296875 -0.78125 -1.0625 -1.234375q-0.765625 -0.46875 -1.796875 -0.46875q-1.640625 0 -2.84375 1.046875q-1.1875 1.03125 -1.1875 3.953125l0 8.3125l-2.578125 0z" fill-rule="nonzero"/><path fill="#ffffff" fill-opacity="0.9101" d="m232.66011 242.48499l0 0c0 -4.0729675 3.3017883 -7.374756 7.3747406 -7.374756l479.92767 0c1.9558716 0 3.831726 0.7769928 5.2147217 2.160019c1.3830566 1.3830414 2.1600342 3.2588348 2.1600342 5.214737l0 50.037903c0 4.0729675 -3.3018188 7.374756 -7.374756 7.374756l-479.92767 0c-4.0729523 0 -7.3747406 -3.3017883 -7.3747406 -7.374756z" fill-rule="evenodd"/><path stroke="#000000" stroke-width="2.0" stroke-linejoin="round" stroke-linecap="butt" d="m232.66011 242.48499l0 0c0 -4.0729675 3.3017883 -7.374756 7.3747406 -7.374756l479.92767 0c1.9558716 0 3.831726 0.7769928 5.2147217 2.160019c1.3830566 1.3830414 2.1600342 3.2588348 2.1600342 5.214737l0 50.037903c0 4.0729675 -3.3018188 7.374756 -7.374756 7.374756l-479.92767 0c-4.0729523 0 -7.3747406 -3.3017883 -7.3747406 -7.374756z" fill-rule="evenodd"/><path fill="#000000" fill-opacity="0.0" d="m259.21127 240.03937l441.5748 0l0 54.92914l-441.5748 0z" fill-rule="evenodd"/><path fill="#000000" d="m326.7167 277.19937l8.0625 -21.0l3.0 0l8.59375 21.0l-3.171875 0l-2.453125 -6.359375l-8.765625 0l-2.3125 6.359375l-2.953125 0zm6.0625 -8.625l7.109375 0l-2.1875 -5.8125q-1.0 -2.640625 -1.484375 -4.34375q-0.40625 2.015625 -1.140625 4.0l-2.296875 6.15625zm25.45227 8.625l0 -2.234375q-1.78125 2.578125 -4.828125 2.578125q-1.34375 0 -2.515625 -0.515625q-1.171875 -0.515625 -1.734375 -1.296875q-0.5625 -0.78125 -0.796875 -1.90625q-0.15625 -0.765625 -0.15625 -2.40625l0 -9.421875l2.578125 0l0 8.421875q0 2.03125 0.15625 2.734375q0.25 1.015625 1.03125 1.59375q0.796875 0.578125 1.953125 0.578125q1.15625 0 2.171875 -0.59375q1.015625 -0.59375 1.4375 -1.609375q0.421875 -1.03125 0.421875 -2.984375l0 -8.140625l2.578125 0l0 15.203125l-2.296875 0zm11.967163 -2.3125l0.375 2.28125q-1.09375 0.234375 -1.953125 0.234375q-1.40625 0 -2.1875 -0.4375q-0.765625 -0.453125 -1.078125 -1.171875q-0.3125 -0.734375 -0.3125 -3.046875l0 -8.75l-1.890625 0l0 -2.0l1.890625 0l0 -3.765625l2.5625 -1.546875l0 5.3125l2.59375 0l0 2.0l-2.59375 0l0 8.890625q0 1.109375 0.125 1.421875q0.140625 0.3125 0.453125 0.5q0.3125 0.1875 0.890625 0.1875q0.421875 0 1.125 -0.109375zm1.5545349 -5.296875q0 -4.21875 2.359375 -6.25q1.953125 -1.6875 4.78125 -1.6875q3.125 0 5.109375 2.0625q2.0 2.046875 2.0 5.671875q0 2.921875 -0.875 4.609375q-0.875 1.6875 -2.5625 2.625q-1.6875 0.921875 -3.671875 0.921875q-3.203125 0 -5.171875 -2.046875q-1.96875 -2.046875 -1.96875 -5.90625zm2.65625 0q0 2.921875 1.265625 4.375q1.28125 1.453125 3.21875 1.453125q1.921875 0 3.1875 -1.453125q1.28125 -1.46875 1.28125 -4.453125q0 -2.828125 -1.28125 -4.28125q-1.28125 -1.453125 -3.1875 -1.453125q-1.9375 0 -3.21875 1.453125q-1.265625 1.4375 -1.265625 4.359375zm14.623413 7.609375l0 -15.203125l2.296875 0l0 2.125q0.71875 -1.109375 1.90625 -1.78125q1.1875 -0.6875 2.703125 -0.6875q1.703125 0 2.78125 0.703125q1.078125 0.6875 1.515625 1.953125q1.8125 -2.65625 4.703125 -2.65625q2.265625 0 3.484375 1.25q1.21875 1.25 1.21875 3.859375l0 10.4375l-2.5625 0l0 -9.578125q0 -1.546875 -0.265625 -2.21875q-0.25 -0.6875 -0.90625 -1.09375q-0.65625 -0.421875 -1.546875 -0.421875q-1.59375 0 -2.65625 1.0625q-1.0625 1.0625 -1.0625 3.421875l0 8.828125l-2.578125 0l0 -9.875q0 -1.71875 -0.640625 -2.578125q-0.625 -0.859375 -2.046875 -0.859375q-1.09375 0 -2.015625 0.578125q-0.921875 0.5625 -1.34375 1.671875q-0.40625 1.09375 -0.40625 3.171875l0 7.890625l-2.578125 0zm34.352448 -1.875q-1.4375 1.21875 -2.765625 1.71875q-1.3125 0.5 -2.828125 0.5q-2.515625 0 -3.859375 -1.21875q-1.34375 -1.234375 -1.34375 -3.140625q0 -1.109375 0.5 -2.03125q0.515625 -0.921875 1.328125 -1.484375q0.828125 -0.5625 1.859375 -0.84375q0.765625 -0.203125 2.296875 -0.390625q3.125 -0.375 4.59375 -0.890625q0.015625 -0.53125 0.015625 -0.671875q0 -1.578125 -0.734375 -2.21875q-0.984375 -0.875 -2.9375 -0.875q-1.8125 0 -2.6875 0.640625q-0.859375 0.640625 -1.265625 2.25l-2.53125 -0.34375q0.34375 -1.609375 1.125 -2.609375q0.796875 -1.0 2.28125 -1.53125q1.5 -0.53125 3.453125 -0.53125q1.953125 0 3.171875 0.453125q1.21875 0.453125 1.78125 1.15625q0.578125 0.6875 0.8125 1.75q0.125 0.65625 0.125 2.375l0 3.4375q0 3.59375 0.15625 4.546875q0.171875 0.953125 0.65625 1.828125l-2.6875 0q-0.40625 -0.796875 -0.515625 -1.875zm-0.21875 -5.75q-1.40625 0.5625 -4.203125 0.96875q-1.59375 0.21875 -2.25 0.515625q-0.65625 0.28125 -1.015625 0.84375q-0.359375 0.546875 -0.359375 1.21875q0 1.03125 0.78125 1.71875q0.78125 0.6875 2.28125 0.6875q1.484375 0 2.640625 -0.65625q1.171875 -0.65625 1.71875 -1.78125q0.40625 -0.875 0.40625 -2.578125l0 -0.9375zm12.232788 5.3125l0.375 2.28125q-1.09375 0.234375 -1.953125 0.234375q-1.40625 0 -2.1875 -0.4375q-0.765625 -0.453125 -1.078125 -1.171875q-0.3125 -0.734375 -0.3125 -3.046875l0 -8.75l-1.890625 0l0 -2.0l1.890625 0l0 -3.765625l2.5625 -1.546875l0 5.3125l2.59375 0l0 2.0l-2.59375 0l0 8.890625q0 1.109375 0.125 1.421875q0.140625 0.3125 0.453125 0.5q0.3125 0.1875 0.890625 0.1875q0.421875 0 1.125 -0.109375zm2.53891 -15.71875l0 -2.96875l2.578125 0l0 2.96875l-2.578125 0zm0 18.03125l0 -15.203125l2.578125 0l0 15.203125l-2.578125 0zm16.422028 -5.578125l2.53125 0.34375q-0.40625 2.609375 -2.125 4.09375q-1.71875 1.484375 -4.203125 1.484375q-3.125 0 -5.03125 -2.03125q-1.890625 -2.046875 -1.890625 -5.859375q0 -2.46875 0.8125 -4.3125q0.828125 -1.84375 2.484375 -2.765625q1.671875 -0.921875 3.640625 -0.921875q2.46875 0 4.046875 1.25q1.578125 1.25 2.03125 3.5625l-2.515625 0.375q-0.359375 -1.53125 -1.265625 -2.296875q-0.90625 -0.78125 -2.203125 -0.78125q-1.9375 0 -3.15625 1.40625q-1.21875 1.390625 -1.21875 4.40625q0 3.078125 1.171875 4.46875q1.171875 1.375 3.0625 1.375q1.515625 0 2.53125 -0.921875q1.015625 -0.9375 1.296875 -2.875zm19.218628 5.578125l-8.140625 -21.0l3.015625 0l5.453125 15.25q0.65625 1.84375 1.09375 3.4375q0.5 -1.71875 1.140625 -3.4375l5.671875 -15.25l2.828125 0l-8.21875 21.0l-2.84375 0zm22.02127 -4.890625l2.65625 0.328125q-0.625 2.328125 -2.328125 3.625q-1.703125 1.28125 -4.359375 1.28125q-3.328125 0 -5.28125 -2.046875q-1.953125 -2.0625 -1.953125 -5.765625q0 -3.84375 1.96875 -5.953125q1.984375 -2.125 5.125 -2.125q3.0625 0 4.984375 2.078125q1.9375 2.0625 1.9375 5.84375q0 0.21875 -0.015625 0.671875l-11.34375 0q0.140625 2.515625 1.421875 3.84375q1.28125 1.328125 3.171875 1.328125q1.421875 0 2.421875 -0.734375q1.0 -0.75 1.59375 -2.375zm-8.46875 -4.171875l8.5 0q-0.171875 -1.921875 -0.96875 -2.875q-1.234375 -1.5 -3.203125 -1.5q-1.765625 0 -2.984375 1.1875q-1.203125 1.1875 -1.34375 3.1875zm24.295288 3.484375l2.53125 0.34375q-0.40625 2.609375 -2.125 4.09375q-1.71875 1.484375 -4.203125 1.484375q-3.125 0 -5.03125 -2.03125q-1.890625 -2.046875 -1.890625 -5.859375q0 -2.46875 0.8125 -4.3125q0.828125 -1.84375 2.484375 -2.765625q1.671875 -0.921875 3.640625 -0.921875q2.46875 0 4.046875 1.25q1.578125 1.25 2.03125 3.5625l-2.515625 0.375q-0.359375 -1.53125 -1.265625 -2.296875q-0.90625 -0.78125 -2.203125 -0.78125q-1.9375 0 -3.15625 1.40625q-1.21875 1.390625 -1.21875 4.40625q0 3.078125 1.171875 4.46875q1.171875 1.375 3.0625 1.375q1.515625 0 2.53125 -0.921875q1.015625 -0.9375 1.296875 -2.875zm10.3671875 3.265625l0.375 2.28125q-1.09375 0.234375 -1.953125 0.234375q-1.40625 0 -2.1875 -0.4375q-0.765625 -0.453125 -1.078125 -1.171875q-0.3125 -0.734375 -0.3125 -3.046875l0 -8.75l-1.890625 0l0 -2.0l1.890625 0l0 -3.765625l2.5625 -1.546875l0 5.3125l2.59375 0l0 2.0l-2.59375 0l0 8.890625q0 1.109375 0.125 1.421875q0.140625 0.3125 0.453125 0.5q0.3125 0.1875 0.890625 0.1875q0.421875 0 1.125 -0.109375zm1.5545654 -5.296875q0 -4.21875 2.359375 -6.25q1.953125 -1.6875 4.78125 -1.6875q3.125 0 5.109375 2.0625q2.0 2.046875 2.0 5.671875q0 2.921875 -0.875 4.609375q-0.875 1.6875 -2.5625 2.625q-1.6875 0.921875 -3.671875 0.921875q-3.203125 0 -5.171875 -2.046875q-1.96875 -2.046875 -1.96875 -5.90625zm2.65625 0q0 2.921875 1.265625 4.375q1.28125 1.453125 3.21875 1.453125q1.921875 0 3.1875 -1.453125q1.28125 -1.46875 1.28125 -4.453125q0 -2.828125 -1.28125 -4.28125q-1.28125 -1.453125 -3.1875 -1.453125q-1.9375 0 -3.21875 1.453125q-1.265625 1.4375 -1.265625 4.359375zm14.592163 7.609375l0 -15.203125l2.3125 0l0 2.296875q0.890625 -1.609375 1.640625 -2.125q0.75 -0.515625 1.65625 -0.515625q1.3125 0 2.65625 0.828125l-0.890625 2.390625q-0.953125 -0.5625 -1.890625 -0.5625q-0.84375 0 -1.515625 0.515625q-0.671875 0.5 -0.96875 1.40625q-0.421875 1.375 -0.421875 3.0l0 7.96875l-2.578125 0zm9.8133545 -18.03125l0 -2.96875l2.578125 0l0 2.96875l-2.578125 0zm0 18.03125l0 -15.203125l2.578125 0l0 15.203125l-2.578125 0zm5.140808 0l0 -2.09375l9.671875 -11.109375q-1.640625 0.078125 -2.90625 0.078125l-6.203125 0l0 -2.078125l12.4375 0l0 1.703125l-8.234375 9.640625l-1.59375 1.765625q1.734375 -0.125 3.25 -0.125l7.03125 0l0 2.21875l-13.453125 0zm25.945312 -1.875q-1.4375 1.21875 -2.765625 1.71875q-1.3125 0.5 -2.828125 0.5q-2.515625 0 -3.859375 -1.21875q-1.34375 -1.234375 -1.34375 -3.140625q0 -1.109375 0.5 -2.03125q0.515625 -0.921875 1.328125 -1.484375q0.828125 -0.5625 1.859375 -0.84375q0.765625 -0.203125 2.296875 -0.390625q3.125 -0.375 4.59375 -0.890625q0.015625 -0.53125 0.015625 -0.671875q0 -1.578125 -0.734375 -2.21875q-0.984375 -0.875 -2.9375 -0.875q-1.8125 0 -2.6875 0.640625q-0.859375 0.640625 -1.265625 2.25l-2.53125 -0.34375q0.34375 -1.609375 1.125 -2.609375q0.796875 -1.0 2.28125 -1.53125q1.5 -0.53125 3.453125 -0.53125q1.953125 0 3.171875 0.453125q1.21875 0.453125 1.78125 1.15625q0.578125 0.6875 0.8125 1.75q0.125 0.65625 0.125 2.375l0 3.4375q0 3.59375 0.15625 4.546875q0.171875 0.953125 0.65625 1.828125l-2.6875 0q-0.40625 -0.796875 -0.515625 -1.875zm-0.21875 -5.75q-1.40625 0.5625 -4.203125 0.96875q-1.59375 0.21875 -2.25 0.515625q-0.65625 0.28125 -1.015625 0.84375q-0.359375 0.546875 -0.359375 1.21875q0 1.03125 0.78125 1.71875q0.78125 0.6875 2.28125 0.6875q1.484375 0 2.640625 -0.65625q1.171875 -0.65625 1.71875 -1.78125q0.40625 -0.875 0.40625 -2.578125l0 -0.9375zm12.232788 5.3125l0.375 2.28125q-1.09375 0.234375 -1.953125 0.234375q-1.40625 0 -2.1875 -0.4375q-0.765625 -0.453125 -1.078125 -1.171875q-0.3125 -0.734375 -0.3125 -3.046875l0 -8.75l-1.890625 0l0 -2.0l1.890625 0l0 -3.765625l2.5625 -1.546875l0 5.3125l2.59375 0l0 2.0l-2.59375 0l0 8.890625q0 1.109375 0.125 1.421875q0.140625 0.3125 0.453125 0.5q0.3125 0.1875 0.890625 0.1875q0.421875 0 1.125 -0.109375zm2.5389404 -15.71875l0 -2.96875l2.578125 0l0 2.96875l-2.578125 0zm0 18.03125l0 -15.203125l2.578125 0l0 15.203125l-2.578125 0zm5.531372 -7.609375q0 -4.21875 2.359375 -6.25q1.953125 -1.6875 4.78125 -1.6875q3.125 0 5.109375 2.0625q2.0 2.046875 2.0 5.671875q0 2.921875 -0.875 4.609375q-0.875 1.6875 -2.5625 2.625q-1.6875 0.921875 -3.671875 0.921875q-3.203125 0 -5.171875 -2.046875q-1.96875 -2.046875 -1.96875 -5.90625zm2.65625 0q0 2.921875 1.265625 4.375q1.28125 1.453125 3.21875 1.453125q1.921875 0 3.1875 -1.453125q1.28125 -1.46875 1.28125 -4.453125q0 -2.828125 -1.28125 -4.28125q-1.28125 -1.453125 -3.1875 -1.453125q-1.9375 0 -3.21875 1.453125q-1.265625 1.4375 -1.265625 4.359375zm14.623413 7.609375l0 -15.203125l2.3125 0l0 2.15625q1.671875 -2.5 4.84375 -2.5q1.375 0 2.53125 0.5q1.15625 0.484375 1.71875 1.296875q0.578125 0.796875 0.8125 1.890625q0.140625 0.71875 0.140625 2.515625l0 9.34375l-2.578125 0l0 -9.25q0 -1.578125 -0.3125 -2.359375q-0.296875 -0.78125 -1.0625 -1.234375q-0.765625 -0.46875 -1.796875 -0.46875q-1.640625 0 -2.84375 1.046875q-1.1875 1.03125 -1.1875 3.953125l0 8.3125l-2.578125 0z" fill-rule="nonzero"/></g></svg>